<?xml version="1.0" encoding="UTF-8"?><svg xmlns="http://www.w3.org/2000/svg" xmlns:xlink="http://www.w3.org/1999/xlink" viewBox="0 0 550 240"><defs><style>.e{fill:url(#d);}.f{fill:#777;stroke:#000;stroke-miterlimit:10;stroke-width:3.64px;}</style><linearGradient id="d" x1="275.01" y1="270.64" x2="274.99" y2="-12.23" gradientTransform="matrix(1, 0, 0, 1, 0, 0)" gradientUnits="userSpaceOnUse"><stop offset="0" stop-color="#777"/><stop offset="0" stop-color="#787878" stop-opacity=".99"/><stop offset=".14" stop-color="#a1a1a1" stop-opacity=".69"/><stop offset=".28" stop-color="#c3c3c3" stop-opacity=".44"/><stop offset=".43" stop-color="#ddd" stop-opacity=".24"/><stop offset=".59" stop-color="#f0f0f0" stop-opacity=".11"/><stop offset=".77" stop-color="#fbfbfb" stop-opacity=".03"/><stop offset="1" stop-color="#fff" stop-opacity="0"/></linearGradient></defs><g id="a"/><g id="b"><g id="c"><g><g><rect class="e" x="5" y="5" width="540" height="230" rx="50" ry="50"/><path d="M495,10c24.81,0,45,20.19,45,45V185c0,24.81-20.19,45-45,45H55c-24.81,0-45-20.19-45-45V55C10,30.19,30.19,10,55,10H495m0-10H55C24.62,0,0,24.62,0,55V185c0,30.38,24.62,55,55,55H495c30.38,0,55-24.62,55-55V55c0-30.38-24.62-55-55-55h0Z"/></g><path class="f" d="M534.5,146.13l11.73-17.09-13.73-13.73-.12,.08-.04-.04-16.98,11.65c-4.87-2.96-10.23-5.2-15.92-6.6l-3.79-20.39h-19.42l-.03,.14h-.06l-3.76,20.22c-5.71,1.39-11.08,3.62-15.97,6.58l-17.06-11.71-13.73,13.73,.08,.12-.04,.04,11.6,16.9c-2.99,4.9-5.26,10.29-6.66,16.02l-20.28,3.77v19.42l20.23,3.76c1.39,5.78,3.65,11.22,6.65,16.16l-11.64,16.96,13.73,13.73,16.93-11.62c4.94,3.02,10.38,5.3,16.16,6.7h26.94c5.77-1.4,11.82-1.82,16.68-4.93,3.04-1.94,9.38-5.52,12-8,2.72-2.58,9-12,9-12,2.99-4.91,2.73-11.14,4.13-16.89l-.03-27.05c-1.4-5.7-3.64-11.06-6.61-15.94Zm-48.56,52.88c-12.82,0-23.22-10.39-23.22-23.22s10.39-23.22,23.22-23.22,23.22,10.39,23.22,23.22-10.39,23.22-23.22,23.22Z"/></g></g></g></svg>