<?xml version="1.0" encoding="UTF-8"?><svg xmlns="http://www.w3.org/2000/svg" xmlns:xlink="http://www.w3.org/1999/xlink" viewBox="0 0 550 241.3"><defs><style>.e{fill:url(#d);}.f{fill:#fb0;stroke-width:10px;}.f,.g{stroke:#000;stroke-miterlimit:10;}.h{font-size:43px;}.h,.i{font-family:Nove, Nove;}.i{font-size:30px;}.g{fill:#ffe6a6;stroke-width:.25px;}</style><linearGradient id="d" x1="276.15" y1="310.16" x2="274.81" y2="88.66" gradientTransform="matrix(1, 0, 0, 1, 0, 0)" gradientUnits="userSpaceOnUse"><stop offset="0" stop-color="#fb0"/><stop offset=".22" stop-color="#ffcb3c" stop-opacity=".76"/><stop offset=".6" stop-color="#ffe6a4" stop-opacity=".36"/><stop offset=".87" stop-color="#fff8e5" stop-opacity=".1"/><stop offset="1" stop-color="#fff" stop-opacity="0"/></linearGradient></defs><g id="a"/><g id="b"><g id="c"><g><g><rect class="e" x="5" y="5" width="540" height="230" rx="50" ry="50"/><path d="M495,10c24.81,0,45,20.19,45,45V185c0,24.81-20.19,45-45,45H55c-24.81,0-45-20.19-45-45V55C10,30.19,30.19,10,55,10H495m0-10H55C24.62,0,0,24.62,0,55V185c0,30.38,24.62,55,55,55H495c30.38,0,55-24.62,55-55V55c0-30.38-24.62-55-55-55h0Z"/></g><path class="f" d="M331,235l-3-42,77,5-3-63h94.35l-7.35,45,52-5-2,30s-14,29-41,30h-167Z"/><text class="i" transform="translate(359.79 234.85)"><tspan x="0" y="0">3</tspan></text><text class="h" transform="translate(437.79 189.85)"><tspan x="0" y="0">1</tspan></text><text class="i" transform="translate(512.79 222.85)"><tspan x="0" y="0">2</tspan></text><path class="g" d="M458.12,143.43c-.68,.07-1.12,.96-.75,1.54l19.03,1.95c.9,.09,1.84,.2,2.59,.69,1.16,.76,1.61,2.23,1.9,3.58,.79,3.65,1.09,7.4,.89,11.13-.03,.61-.07,1.27,.26,1.78s1.17,.73,1.54,.24c.13-.17,.17-.39,.21-.6,.92-5,1.48-10.07,1.65-15.15,.07-2.06-.15-4.53-1.96-5.51-.67-.36-1.44-.45-2.2-.51-6.01-.54-12.09-.44-18.08,.3-1.58-.15-3.51,.41-5.08,.56Z"/><path class="g" d="M336.85,221.47c-.04-2.32,.03-4.73,1.04-6.82,.22-.45,.49-.9,.91-1.17s1.01-.34,1.41-.04c.34,.26,.46,.71,.55,1.13,.66,2.96,.88,6.01,.66,9.03-.16,2.11-.52,4.23-.17,6.31-2.43,.26-3.82,.52-4.06-2.04-.2-2.13-.29-4.27-.33-6.4Z"/></g></g></g></svg>