<?xml version="1.0" encoding="UTF-8"?><svg xmlns="http://www.w3.org/2000/svg" xmlns:xlink="http://www.w3.org/1999/xlink" viewBox="0 0 550 240"><defs><style>.l{fill:url(#d);}.m{fill:url(#i);}.n{fill:url(#h);}.o{fill:url(#j);}.p{fill:#ffe8e8;}.q{fill:#990005;}.r{fill:#fcc;}.r,.s,.t,.u,.v,.w,.x,.y{stroke-miterlimit:10;}.r,.s,.t,.v{stroke:#000;stroke-width:.53px;}.s{fill:#fcc29f;}.t{fill:#a80006;}.u{fill:url(#e);stroke-width:1.18px;}.u,.w,.x,.y{stroke:#c1272d;}.v{fill:url(#k);}.w{fill:red;}.w,.x,.y{stroke-width:1.07px;}.x{fill:url(#f);}.y{fill:url(#g);}</style><linearGradient id="d" x1="276.21" y1="376.51" x2="274.89" y2="96.51" gradientTransform="matrix(1, 0, 0, 1, 0, 0)" gradientUnits="userSpaceOnUse"><stop offset=".19" stop-color="maroon"/><stop offset="1" stop-color="#fff" stop-opacity="0"/></linearGradient><linearGradient id="e" x1="499.31" y1="207.15" x2="541.85" y2="207.15" gradientTransform="matrix(1, 0, 0, 1, 0, 0)" gradientUnits="userSpaceOnUse"><stop offset="0" stop-color="red"/><stop offset="1" stop-color="#e00007"/></linearGradient><linearGradient id="f" x1="518.38" y1="180.21" x2="541.85" y2="180.21" xlink:href="#e"/><linearGradient id="g" x1="479.58" y1="173.68" x2="528.42" y2="173.68" xlink:href="#e"/><linearGradient id="h" x1="531.26" y1="164.42" x2="490.82" y2="182.88" gradientTransform="matrix(1, 0, 0, 1, 0, 0)" gradientUnits="userSpaceOnUse"><stop offset="0" stop-color="#c1272d"/><stop offset="1" stop-color="#e00007"/></linearGradient><linearGradient id="i" x1="533.04" y1="192.56" x2="477.14" y2="218.08" xlink:href="#h"/><linearGradient id="j" x1="545.21" y1="196.49" x2="527.95" y2="204.37" xlink:href="#h"/><linearGradient id="k" x1="446" y1="121.41" x2="525.89" y2="121.41" gradientTransform="matrix(1, 0, 0, 1, 0, 0)" gradientUnits="userSpaceOnUse"><stop offset="0" stop-color="#00bf00"/><stop offset="1" stop-color="#005900"/></linearGradient></defs><g id="a"/><g id="b"><g id="c"><g><g><rect class="l" x="5" y="5" width="540" height="230" rx="50" ry="50"/><path d="M495,10c24.81,0,45,20.19,45,45V185c0,24.81-20.19,45-45,45H55c-24.81,0-45-20.19-45-45V55C10,30.19,30.19,10,55,10H495m0-10H55C24.62,0,0,24.62,0,55V185c0,30.38,24.62,55,55,55H495c30.38,0,55-24.62,55-55V55c0-30.38-24.62-55-55-55h0Z"/></g><g><path class="u" d="M499.31,230.02c0-5.56,1.27-13.38,3.44-18.65,2.82-6.85,6.26-13.65,11.72-18.65,7.68-7.03,17.4-10.31,27.38-7.34,0,1.13,0,2.27,0,3.41-.04,22.78-18.51,41.23-41.29,41.23-.41,0-.83,0-1.25,0Z"/><path class="x" d="M518.38,178.53c2.89-1.59,5.93-2.89,9.08-3.87,1.04-.33,2.53,.05,3.28,.84,3.1,3.24,7.31,5.92,10.78,8.69,.7,.56,.11,.56-.21,1.4-3.64-.12-10.79,.16-13.57,.28-.71,.03-1.39-.28-1.83-.83-1.41-1.76-5.09-3.73-7.53-6.5Z"/><path class="w" d="M499.31,230.02c-16.32,0-33.21-.39-50.07-.39,6.74-16.79,16.55-33.39,28.54-46.94,.33-.37,.77-.78,1.25-.66,.31,.07,.52,.34,.71,.59,1.01,1.35,2.03,2.73,3.43,3.65,2.41,1.59,5.53,1.57,8.4,1.27,7.89-.83,15.58-3.4,22.4-7.45,1.04-.62,2.19-1.3,3.39-1.09,.68,.12,1.28,.53,1.85,.92l8.11,5.59c-15.85,7.99-27.19,26.65-28,44.51Z"/><path class="y" d="M481.75,172.85c-.91,2.01-1.84,4.06-2.1,6.26s.22,4.59,1.79,6.14c1.23,1.22,2.98,1.78,4.69,2.03,4.04,.59,8.14-.31,12.07-1.39,10.37-2.85,20.81-6.94,30.21-12.17-2.01-2.33-3.26-3.65-4.44-6.74-.99-2.57-2.7-4.72-4.24-6.34-.68-.71-1.72-.97-2.62-.59-1.97,.82-2.84,3.19-5.4,5.75-4.59,4.59-9.01,6.73-15.24,8.57-4.97,1.47-10.74,1.98-14.72-1.53Z"/><path class="s" d="M481.62,172.37c-.38-2.8-1.52-5.92-3.08-8.28-.14-.21,.1,.33,.33,.25,10.52-3.64,16.67-6.22,21.77-10.33,.5-.4,1.45-.94,2.06-.76,6.71,1.94,7.83,2.62,12.71,1.91,.15-.02,.3,.05,.37,.19,.62,1.19,1.33,2.32,2.13,3.39,.17,.22,.04,.55-.24,.58-1.01,.09-7.33,6.23-8.11,7.11-3.87,4.36-9.83,6.16-11.62,6.84-5.34,2.01-11.12,1.83-16.14-.62-.11-.05-.18-.16-.2-.28Z"/><path class="n" d="M511.06,178.58c3.63-1.26,7.2-2.71,10.68-4.35,.47-.22,.98-.48,1.23-.93,.32-.58,.14-1.3-.08-1.93-.76-2.17-1.93-4.2-3.44-5.95-.35-.41-.98-.82-1.36-.44-.17,.17-.2,.44-.19,.68,.06,1.59,1.19,3.28,.38,4.66-.34,.58-.95,.93-1.54,1.25-4.31,2.35-8.71,4.54-13.19,6.54-2.16,.96-6.27,1.98-5.49,4.21,.48,1.37,2.85,.08,4.19-.48,3.69-1.54,7.48-2.8,8.81-3.26Z"/><path class="m" d="M490.99,213.91c1.54-5.72,3.76-11.31,7.12-16.2,3.36-4.88,7.89-9.05,13.32-11.43,.94-.41,2.18-.7,2.86,.06,.49,.56,.72,1.56,.24,2.13-4.09,4.92-6.5,4.91-10.57,10.91-2.99,4.4-6.27,9.04-7.79,15.84-.45,2.01-1.02,10.17-2.64,11.44-.37,.29-.84,.54-1.3,.45-.57-.11-.92-.67-1.16-1.19-.71-1.53-.84-9.15-.08-12.01Z"/><path class="o" d="M534.49,211.07c-.26-5.87-.38-11.53-.38-17.64,0-2.3,2.86-8.58,4.3,.44,.1,.6,.2,4.16,.3,8.89,.12,5.92-4.02,12.76-4.22,8.31Z"/><path d="M518.44,159.66c.82,0,2,.69,2.79,2.23,4.17,8.06,7.2,11.58,10.72,14.64,2.22,1.93,8.81,7.02,10.09,8.01v5.16c0,22.47-18.28,40.76-40.76,40.76h-52.81c1.62-3.8,9.16-21.23,15.05-29.77l1.21-1.76c4.43-6.44,9.01-13.11,13.69-16.99,.73-.6,.94-2.09,1.13-3.97,.06-.57,.12-1.1,.19-1.41,.18-.75,1.28-2.56,1.92-3.57,1.18,.61,4.53,2.11,9.24,2.11,3.7,0,7.38-.93,10.92-2.76,5.06-2.3,7.24-4.66,9.35-6.94,1.7-1.83,3.45-3.73,6.76-5.63,.13-.07,.3-.11,.49-.11m0-.53c-.29,0-.54,.06-.76,.18-7.5,4.31-7.03,8.45-16.06,12.54-3.97,2.05-7.62,2.72-10.7,2.72-5.71,0-9.42-2.29-9.42-2.29,0,0-1.99,3-2.27,4.15-.27,1.12-.26,4.36-1.15,5.09-5.17,4.29-10.21,11.92-15,18.86-6.71,9.72-15.41,30.61-15.41,30.61h53.62c22.8,0,41.29-18.49,41.29-41.29v-5.42s-7.84-6.04-10.28-8.15c-3.39-2.94-6.39-6.34-10.6-14.48-.9-1.73-2.25-2.52-3.27-2.52h0Z"/><path class="s" d="M508.08,147.36c-5.56-3.24-10.21-7.8-14.8-12.31-1.63-1.6-3.28-3.24-4.33-5.26-.86-1.65-1.27-3.49-1.99-5.21-3.47-8.31-13.18-12.4-17.57-20.27-.43-.76-1.27-1.69-1.97-1.17-.2,.15-.31,.38-.41,.61-1.4,3.06-2.77,6.13-4.11,9.22-.7,1.6-1.39,3.24-1.64,4.96-.21,1.42-.12,2.87-.24,4.3-.17,2.04-.78,4.05-1.77,5.84-.66,1.19-1.48,2.29-1.94,3.57-.5,1.41-.53,2.95-.94,4.38-.39,1.36-1.11,2.6-1.53,3.94s-.49,2.93,.35,4.06c1.2,1.63,3.65,1.61,5.59,1.02,0,1.03,.15,2.05,.5,3.02,.63,1.24-.19,2.73-.02,4.1,.06,.51,.27,1,.39,1.5,.53,2.24-.59,4.55-.41,6.85,.22,2.86,2.72,5.36,5.57,5.59,1.07,.09,2.14-.11,3.19-.31,7.44-1.39,14.98-2.81,21.77-6.13,4.96-2.43,9.4-5.82,13.48-9.55,1.32-1.21,2.61-2.45,2.85-2.76Z"/><path class="t" d="M482.41,199.8c.24-3.58,2.26-6.75,3.62-10.06,1.68-4.08,2.41-8.56,2.1-12.96-.36-5.16-2.04-10.69,.39-15.26,1.75-3.28,5.22-5.19,8.5-6.93l12.87-6.79c2.66-1.4,5.62-2.85,8.54-2.15,2.78,.67,4.8,3.2,5.66,5.92s.76,5.64,.66,8.5c-.1,2.66-.2,5.33-.03,7.85,.8,2.05,2.57,3.47,4.12,5.02,1.18,1.18,1.48,1.95,2.3,2.7,.29,.26,.75,.17,.9-.19,8.02-19.13,3.86-31.63,1.61-47.58-1.27-8.99-2.78-18.49-8.6-25.47-4.82-5.78-12.11-9.09-19.52-10.44-7.41-1.36-15.02-.94-22.53-.39-3.71,.27-7.42,.58-11.07,1.27-3.17,.61-6.89,2.2-7.16,5.42-.11,1.32,.43,2.61,1.1,3.75,1.74,2.96,4.34,5.29,6.82,7.66,2.35,2.24,4.62,4.57,6.81,6.96,4.53,4.95,8.92,10.74,9.18,17.44,.2,5.25-2.17,10.22-3.24,15.37-2.76,13.36,3.3,27.92-1.8,40.57-.68,1.68-1.55,3.3-1.94,5.06s-.23,3.78,.71,4.71Z"/><path class="r" d="M482.41,199.8c.24-3.58,2.26-6.75,3.62-10.06,1.68-4.08,2.41-8.56,2.1-12.96-.36-5.16-2.04-10.69,.39-15.26,1.75-3.28,5.22-5.19,8.5-6.93l12.87-6.79c-6.51,.22-20.25-5.82-21.22-13.72,.2,5.25-2.17,10.22-3.24,15.37-2.76,13.36,3.3,27.92-1.8,40.57-.68,1.68-1.55,3.3-1.94,5.06s-.23,3.78,.71,4.71Z"/><path class="p" d="M493.78,143.73c2.07,1.44,3.65,3.04,5.72,4.47,.42,.29,.9,.7,.82,1.21-.04,.27-.23,.49-.43,.69-1.94,2.02-4.49,2.87-6.86,4.4-1.71,1.1-3.24,2.87-4.75,4.21-.32,.28-.82,.58-1.12,.27-.08-.08-.12-.18-.15-.29-.44-1.41,.38-2.95,1.51-3.9s2.4-2.11,3.7-2.82c1.34-.73,2.72-1.02,3.77-2.11,.16-.16,.32-.36,.27-.58-.03-.16-.64-.75-.77-.85-.99-.78-1.26-1.24-2.17-2.11s-2.47-2.24-1.45-2.97c.52-.38,1.78,.12,1.89,.36Z"/><path class="q" d="M489.73,95.49c3.21,0,7.62,1.17,11.87,1.63,2.36,.26,4.74,.52,7.02,1.21,5.16,1.57,9.44,5.3,12.66,9.63,2.32,3.12,4.17,6.59,5.47,10.26,.99,2.8,1.66,5.7,2.32,8.59l1.16,5.07c.28,1.2,.55,2.44,.36,3.65s-.98,2.42-2.17,2.74c-1.12,.29-2.32-.27-3.09-1.12s-1.2-1.96-1.58-3.05c-1.68-4.77-2.83-9.72-4.71-14.41-1.88-4.69-4.6-9.22-8.71-12.17-3.52-2.52-7.82-3.71-12.08-4.5s-8.6-1.24-12.75-2.5c-2.17-.66-4.69,.32-6.14-1.43-.47-.57-.95-1.15-.79-1.88,.18-.8,.68-1.25,1.49-1.35s1.52-.5,2.34-.43c1.81,.15,1.87,.07,7.34,.07Z"/><path class="v" d="M522.29,149.72c2.95-3.24,4.22-7.93,3.31-12.22-1.14-5.32-5.39-10.16-4.35-15.49-3.27,2.5-4.7,6.87-4.51,10.99,.19,4.11,1.78,8.03,3.59,11.73-2.55-1.86-5.31-4.01-5.87-7.12-.52-2.84,.96-5.65,1.08-8.53,.14-3.28-1.46-6.35-2.53-9.46-1.02-2.96-1.57-6.08-1.64-9.2-3.25,2.93-4.95,7.34-5.14,11.71-.19,4.37,1.02,8.72,2.84,12.69-1.72-2.71-2.34-5.95-3.33-9s-2.58-6.17-5.42-7.65c1.31-2.56,2.65-5.46,1.81-8.21-.4-1.32-1.27-2.43-2.02-3.58-2.21-3.39-3.53-7.35-3.8-11.39-1.03,.68-1.53,1.93-1.88,3.11-1.57,5.36-1.27,11.25,.84,16.43-3.06-1.8-5.35-4.84-6.25-8.27-.37-1.41-.5-2.87-.85-4.29-.79-3.24-2.63-6.11-4.43-8.91-1.49-2.31-3.37-4.86-6.11-5.07,1.37,1.7,1.92,4.01,1.48,6.14-.25-1.14-1.44-1.83-2.58-2.03s-2.33-.07-3.47-.26c-2.08-.36-3.8-1.76-5.41-3.11l1.5,6.05c-1.24-1.61-3.01-2.79-4.97-3.32-4.38-1.18-9.23,.91-13.51-.6-1.57-.56-3.01-1.59-4.68-1.71,2.36,4.01,5.8,7.37,9.85,9.66-.8,3.55-3.96,6.44-7.56,6.93,1.54,1.88,4.3,2.36,6.68,1.88s4.53-1.72,6.71-2.79,4.57-1.98,6.98-1.64c3.36,3.32,8.1,5.2,12.82,5.07,1.51-.04,3.05-.27,4.49,.16,2.42,.71,3.94,3.05,5.25,5.21-1.29,.02-2.57-.15-3.81-.51,.61,.47,1.12,1.05,1.51,1.72-3.86-.9-7.81-1.36-11.77-1.38,.87,1.75,2.39,3.08,3.91,4.31,2.85,2.3,5.83,4.44,8.93,6.39,1.72,1.08,3.51,2.12,5.49,2.62,.77,.19,1.56,.3,2.31,.55,.63,.21,1.23,.52,1.82,.83,3.47,1.79,7.04,3.67,9.5,6.7,.22,.28,.45,.65,.27,.96-.08,.14-.23,.23-.38,.29-.97,.4-2.09,0-2.92-.63s-1.48-1.47-2.28-2.15c-2.73-2.29-7.06-2.12-9.9,.03-2.84,2.15-4.19,5.93-3.86,9.48,2.77-2.48,6.92-2.56,10.62-2.13s7.54,1.23,11.07,.06c.34-.11,.7-.25,1.05-.15,.29,.08,.5,.3,.71,.52l3.25,3.38c-6.3,1.02-12.29,3.91-17.03,8.19,3.05,1.42,6.47,1.83,9.84,2.02,2.68,.15,5.44,.18,7.95-.76,2.51-.94,4.76-3.02,4.81-4.25Z"/></g></g></g></g></svg>