<?xml version="1.0" encoding="UTF-8"?>
<svg xmlns="http://www.w3.org/2000/svg" viewBox="0 0 427 88.05">
    <defs>
        <style>.d{font-family:Nove,
            Nove;font-size:42px;}.d,.e{fill:#fff;}.f{letter-spacing:0em;}.g{letter-spacing:0em;}
        </style>
    </defs>
    <g id="a"/>
    <g id="b">
        <g id="c">
            <g>
                <g>
                    <path d="M184.26,83.05c-1.14,0-2.25,0-3.32-.02-12.64-.15-31.6-2.12-49.94-4.03-18.13-1.88-36.87-3.83-49.06-3.97h-.76c-15.84,0-60.18,4.92-60.62,4.97l-.28,.03h-.28c-8.27,0-15-6.73-15-15v-.36l.05-.36c.53-3.66,1.91-13.9,1.95-17.34,.05-4.46-1.4-17.64-1.96-22.34l-.04-.3v-.3c0-8.22,6.64-14.91,14.83-15,4.23-.25,66.91-4.01,90.76-4.01,.5,0,.97,0,1.44,0,17.18,.12,41.67,1.46,67.59,2.88,28.26,1.55,57.48,3.15,77.77,3.15,1.57,0,3.08,0,4.54-.03,21.87-.3,87.98-5.92,88.64-5.98l.4-.04,52.23,4.02c7.96,.11,14.44,6.45,14.78,14.35,.79,3.34,4.15,17.86,4.01,23.76-.11,4.66-3.06,15.32-4.02,18.66-.41,7.91-6.97,14.22-14.98,14.22h-.24c-.62-.04-62.51-3-84.56-3h-1.01c-15.81,.07-38.68,1.45-62.9,2.91-25.46,1.53-51.78,3.11-70.03,3.11Z"/>
                    <path class="e"
                          d="M110.6,10.03c.48,0,.95,0,1.4,0,36.05,.26,106.62,6.03,145.39,6.03,1.59,0,3.13,0,4.61-.03,22.3-.3,89-6,89-6l52,4c5.52,0,10,4.48,10,10,0,0,4.14,17.17,4,23-.11,4.61-4,18-4,18,0,5.52-4.48,10-10,10,0,0-62.37-3-84.8-3-.35,0-.7,0-1.03,0-33.02,.15-97.92,6.02-132.91,6.02-1.12,0-2.21,0-3.26-.02-24.83-.29-74.17-7.71-99-8-.26,0-.54,0-.82,0-16.3,0-61.18,5-61.18,5-5.52,0-10-4.48-10-10,0,0,1.95-13.47,2-18,.07-5.77-2-23-2-23,0-5.52,4.48-10,10-10,0,0,66.31-4,90.6-4M350.96,0l-.81,.07c-.66,.06-66.6,5.67-88.29,5.96-1.44,.02-2.93,.03-4.47,.03-20.15,0-49.3-1.6-77.49-3.14C153.92,1.5,129.37,.16,112.07,.03c-.47,0-.96,0-1.47,0C86.8,.03,24.79,3.73,19.65,4.04,8.78,4.22,0,13.12,0,24.03v.6l.07,.59c.77,6.41,1.97,17.97,1.93,21.69-.03,2.66-1.13,11.36-1.9,16.69L0,64.31v.72c0,11.03,8.97,20,20,20h.56l.55-.06c.44-.05,44.52-4.94,60.07-4.94,.24,0,.48,0,.71,0,11.96,.14,30.59,2.08,48.61,3.95,18.45,1.92,37.52,3.9,50.39,4.05,1.09,.01,2.22,.02,3.38,.02,18.4,0,44.8-1.59,70.33-3.12,24.15-1.45,46.96-2.82,62.63-2.9h.98c21.93,0,83.69,2.96,84.31,2.99h.48c10.48,.01,19.1-8.08,19.93-18.35,1.4-4.92,3.95-14.49,4.06-19.41,.14-6.19-2.81-19.38-4.04-24.6-.7-10.24-9.14-18.39-19.51-18.62L351.77,.06l-.81-.06h0Z"/>
                </g>
                <text class="d" transform="translate(16 60.18) scale(1.06 1)">
                    <tspan x="0" y="0">Begin the journey</tspan>
                    <tspan class="f" x="205.22" y="0"></tspan>
                    <tspan x="224.66" y="0"></tspan>
                    <tspan class="g" x="327.67" y="0"></tspan>
                    <tspan x="347.71" y="0"></tspan>
                </text>
            </g>
        </g>
    </g>
</svg>