<?xml version="1.0" encoding="UTF-8"?>
<svg xmlns="http://www.w3.org/2000/svg" viewBox="0 0 177.73 80.88">
    <defs>
        <style>.e{font-family:Nove, Nove;font-size:42px;}.e,.f{fill:#fff;}</style>
    </defs>
    <g id="a" />
    <g id="b">
        <g id="c">
            <g>
                <g id="d">
                    <path d="M77.01,77.69c-.49,0-.96,0-1.41-.02-5.39-.16-12.85-2.07-20.75-4.1-7.23-1.85-14.7-3.77-19.38-3.9h-.24c-5.07,0-19.01,3.53-23.96,4.89l-.42,.11h-.43c-4.97,0-7.24-6.83-7.24-13.18v-.19c.01-.13,.79-13.44,.81-17.83,.03-5.62-.8-22.66-.81-22.83v-.15c0-6.23,2.17-12.92,6.95-13.18,2.58-.38,27.37-4.01,37.02-4.01,.22,0,.42,0,.62,0,7.1,.13,17.1,1.48,27.68,2.9,11.38,1.54,23.14,3.12,31.21,3.12,.61,0,1.19,0,1.76-.03,8.66-.29,35.26-5.88,35.53-5.93l.62-.13,21.48,4.08c4.68,.32,6.83,6.87,6.87,13.01,.18,1.82,1.68,17.48,1.62,23.19-.04,4.48-1.43,16.47-1.62,18.16-.04,6.29-2.31,12.99-7.24,12.99h-.19l-.19-.02c-.25-.03-25.2-2.98-34-2.98h-.38c-6.25,.07-15.88,1.5-25.18,2.88-10.4,1.54-21.16,3.14-28.73,3.14Z" />
                    <path class="f" d="M47.15,6.49c.2,0,.38,0,.57,0,14.61,.26,43.22,6.03,58.94,6.03,.65,0,1.27,0,1.87-.03,9.04-.3,36.08-6,36.08-6l21.08,4c2.24,0,4.05,4.48,4.05,10,0,0,1.68,17.17,1.62,23-.04,4.61-1.62,18-1.62,18,0,5.52-1.81,10-4.05,10,0,0-25.29-3-34.38-3-.14,0-.28,0-.42,0-13.39,.15-39.7,6.02-53.88,6.02-.45,0-.89,0-1.32-.02-10.07-.29-30.07-7.71-40.13-8-.11,0-.22,0-.33,0-6.61,0-24.8,5-24.8,5-2.24,0-4.05-4.48-4.05-10,0,0,.79-13.47,.81-18,.03-5.77-.81-23-.81-23,0-5.52,1.81-10,4.05-10,0,0,26.88-4,36.73-4M144.54,0l-1.25,.26c-7.37,1.55-28.03,5.63-34.98,5.87-.53,.02-1.08,.03-1.65,.03-7.85,0-19.51-1.57-30.78-3.1C65.2,1.62,55.12,.26,47.83,.13c-.22,0-.44,0-.68,0C37.43,.12,13.05,3.67,9.81,4.15,3.91,4.57,0,11.03,0,20.49v.31c.02,.17,.84,17.12,.81,22.66C.79,47.77,.02,60.99,.01,61.12v.37c-.01,9.79,4.18,16.37,10.41,16.37h.86l.83-.23c6.72-1.85,18.93-4.78,23.11-4.78h.15c4.32,.13,11.62,2,18.68,3.81,8.08,2.07,15.71,4.03,21.45,4.2,.49,.01,.99,.02,1.51,.02,7.81,0,18.68-1.61,29.2-3.17,9.2-1.37,18.72-2.78,24.75-2.84h.35c8.61,0,33.38,2.93,33.63,2.96l.37,.04h.38c6.15,0,10.31-6.4,10.42-15.98,.29-2.48,1.58-13.8,1.62-18.33,.05-5.74-1.39-20.99-1.62-23.38-.09-9.2-3.9-15.48-9.63-16.01L145.79,.24l-1.25-.24h0Z" />
                </g>
                <text class="e" transform="translate(25.36 56.64) scale(1.06 1)">
                    <tspan x="0" y="0">login</tspan>
                </text>
            </g>
        </g>
    </g>
</svg>