<?xml version="1.0" encoding="UTF-8"?><svg xmlns="http://www.w3.org/2000/svg" viewBox="0 0 125.53 97.79"><defs><style>.f{fill:#fff;stroke:#000;stroke-miterlimit:10;stroke-width:5px;}</style></defs><g id="a"/><g id="b"><g id="c"><g id="d"><g id="e"><path class="f" d="M90.2,26.98c7.01-.84,24.89-4.62,30.89,3.36,3.29,4.38,1.49,19.3,1.07,24.76-.24,3.15,.27,15.94-3.96,17.22-11.58,3.53-40.46-1.18-57.69-1.27-1.41,0-2.99,.06-3.95,1.1-.86,.94-.9,2.35-.88,3.63,.08,6.97,1.16,6.94,1.23,13.91,.02,1.5,0,3.14-.97,4.3-1.7,2.07-5,1.29-7.44,.18-15.55-7.11-32.37-25.74-43.73-38.51-1.02-1.15-2.1-2.41-2.25-3.94-.19-1.9,1.07-3.59,2.26-5.08,9.39-11.69,20.42-21.05,31.68-31.08,5.24-4.67,13.68-14.15,16.62-12.96s3.93,13.21,2.87,23.98c-.09,.92-.17,1.95,.41,2.67,.74,.93,2.14,.86,3.32,.72,13.51-1.68,22.91-2.05,30.52-2.97v-.02Z"/></g></g></g></g></svg>