<?xml version="1.0" encoding="UTF-8" standalone="no"?>
<svg
   viewBox="0 0 300 300"
   version="1.1"
   id="svg15"
   sodipodi:docname="level_icon-locked.svg"
   inkscape:version="1.1.2 (08b2f3d93c, 2022-04-05)"
   xmlns:inkscape="http://www.inkscape.org/namespaces/inkscape"
   xmlns:sodipodi="http://sodipodi.sourceforge.net/DTD/sodipodi-0.dtd"
   xmlns:xlink="http://www.w3.org/1999/xlink"
   xmlns="http://www.w3.org/2000/svg"
   xmlns:svg="http://www.w3.org/2000/svg">
  <sodipodi:namedview
     id="namedview17"
     pagecolor="#ffffff"
     bordercolor="#666666"
     borderopacity="1.0"
     inkscape:pageshadow="2"
     inkscape:pageopacity="0.0"
     inkscape:pagecheckerboard="0"
     showgrid="false"
     inkscape:zoom="1.9893271"
     inkscape:cx="75.15104"
     inkscape:cy="151.0561"
     inkscape:window-width="2560"
     inkscape:window-height="1376"
     inkscape:window-x="1920"
     inkscape:window-y="27"
     inkscape:window-maximized="1"
     inkscape:current-layer="svg15" />
  <defs
     id="defs4">
    <linearGradient
       inkscape:collect="always"
       id="linearGradient972">
      <stop
         style="stop-color:#000000;stop-opacity:1;"
         offset="0"
         id="stop968" />
      <stop
         style="stop-color:#000000;stop-opacity:0;"
         offset="1"
         id="stop970" />
    </linearGradient>
    <linearGradient
       id="linearGradient960"
       inkscape:swatch="gradient">
      <stop
         style="stop-color:#000000;stop-opacity:0;"
         offset="0"
         id="stop956" />
      <stop
         style="stop-color:#000000;stop-opacity:0;"
         offset="1"
         id="stop958" />
    </linearGradient>
    <style
       id="style2">.d{fill:aqua;fill-opacity:0.75}</style>
    <clipPath
       clipPathUnits="userSpaceOnUse"
       id="clipPath3948">
      <path
         id="path3950"
         style="fill:#ff0000;fill-opacity:1;fill-rule:nonzero;stroke:none"
         d="m 84.44339,33.689453 v 78.628907 c 1.23818,0.30933 2.54468,0.76517 3.91797,1.40234 0.21815,0.10121 0.42421,0.23469 0.6543,0.30469 0.0447,0.0136 -0.1099,-0.114 -0.0645,-0.125 0.11063,-0.0267 0.22748,0.0241 0.33594,0.0586 0.61037,0.19405 1.41148,0.13649 1.8457,0.58399 0.7424,-0.25582 1.53118,-0.46941 2.41211,-0.58789 1.10238,-0.35831 2.35445,-0.55496 3.74219,-0.54688 0.96753,0.006 2.01732,0.14133 3.11133,0.35938 0.72786,-2.40503 1.66316,-4.79917 2.29101,-6.92969 5.71474,-19.391695 17.22511,-28.252956 27.8418,-28.767578 14.54372,-0.704974 27.39387,14.258192 21.38086,39.259768 0.54599,-0.0845 1.0927,-0.16542 1.64063,-0.23633 0.093,-0.012 0.18745,-0.003 0.28125,-0.004 0.63945,-0.006 1.3046,-0.0126 1.875,0.041 0.23987,0.16806 -0.009,0.004 0.77734,-0.0605 0.7408,-0.0607 1.47056,-0.11065 2.21094,-0.0977 1.0873,-0.006 2.17442,0.0157 3.26172,0.0117 0.92389,-0.003 1.84909,-0.0235 2.77343,-0.01 0.69828,-0.34026 1.47224,-0.62405 2.32032,-0.83984 1.33447,-1.4979 3.18792,-2.33237 5.24609,-2.3125 1.90168,0.0183 3.96499,0.81138 5.94336,2.40429 1.49419,0.002 2.38665,0.28065 2.83008,0.76367 2.38538,1e-5 4.77071,2e-5 7.15625,0 1.53962,3e-5 3.07952,5.4e-4 4.61914,0 0.68394,0 1.36683,0.002 2.05078,0.002 0.83015,-0.002 1.65828,-0.01 2.48828,0.0156 0.007,0.001 -0.0125,6e-4 -0.0195,0.002 -0.50239,0.0226 -0.66797,0.0559 -0.81055,0.10156 0.23614,-0.0225 0.46837,-0.0443 0.6875,-0.0586 0.12145,-0.0289 0.15135,-0.045 0.47852,-0.125 0.64048,-0.069 1.28099,-0.14183 1.92187,-0.20703 0.15211,-0.0153 0.30414,-5e-4 0.45703,-0.002 0.5521,-0.003 1.10414,-0.006 1.65625,-0.004 0.87802,0.01 1.76084,0.0662 2.63672,-0.0156 v -0.002 c 0.11545,-0.0103 0.22204,-0.0119 0.33598,-0.021 V 33.689453 Z m 41.35156,62.423828 c -0.4336,0.08427 -0.48666,0.501267 -0.0117,1.38086 0.1657,0.306876 0.35761,0.592739 0.53711,0.888671 l 1.0918,-0.162109 c 6.62323,3.800267 14.3388,5.726227 18.6543,11.078127 -1.42892,-2.25357 -3.6364,-4.03938 -5.32813,-6.13477 -4.05038,-1.53566 -13.06439,-7.415942 -14.94336,-7.050779 z m 20.27149,13.185549 c 0.2864,0.45169 0.55129,0.91587 0.76367,1.41211 1.14633,2.67847 1.89505,4.62852 2.37305,6.19726 -0.028,-0.23427 -0.0373,-0.47005 -0.0781,-0.70312 -0.49899,-2.84701 -1.58213,-5.0752 -3.0586,-6.90625 z m 3.13672,7.60937 c 0.0215,0.18043 0.0288,0.36212 0.0449,0.54297 0.038,-0.005 0.0581,-0.006 0.0937,-0.01 -0.0513,-0.18403 -0.0792,-0.3381 -0.13868,-0.53321 z m -22.88282,-18.525388 -10.50976,1.550782 c -17.2794,2.552106 -14.00874,8.130596 -4.64453,14.615236 3.62029,0.56065 6.10582,2.31418 7.2832,4.54492 0.12573,-0.0158 0.25149,-0.0315 0.37695,-0.0469 0.0202,-0.003 0.0405,-0.005 0.0606,-0.008 0.34556,-0.17139 0.67771,-0.30981 1.29102,-0.57226 0.59349,-0.18389 1.18056,-0.38478 1.7793,-0.55078 0.26156,-0.0726 0.53142,-0.11747 0.79882,-0.16407 0.89894,-0.15663 1.79388,-0.26428 2.69922,-0.36328 0.47564,-0.0643 0.94792,-0.15432 1.42578,-0.19922 1.08857,-0.1024 2.17069,-0.11839 3.26172,-0.0879 1.82437,0.0123 3.65298,-0.16931 5.47461,0.0332 0.69767,0.0486 1.79002,0.12238 2.52344,0.17968 0.74767,0.0584 1.49973,0.0896 2.24219,0.19532 0.0358,0.005 0.064,0.037 0.0996,0.043 0.0484,0.009 0.0974,3e-5 0.14648,0 2.03932,-0.0176 4.08058,-0.0446 6.11914,0.0312 0.32425,0.008 0.64848,0.0133 0.97266,0.0234 -6.56022,-6.95518 -16.47893,-11.11112 -21.40039,-19.224608 z m 50.68946,17.416018 c -0.27533,-0.009 -0.52699,0.0793 -0.75782,0.24414 0.20366,0.0673 0.40079,0.16122 0.59961,0.24805 0.42169,-0.0356 0.8099,-0.055 1.16602,-0.0606 -0.3646,-0.25682 -0.70637,-0.42168 -1.00781,-0.43164 z m 22.02734,1.14453 c -0.58598,-0.0184 -0.89539,0.01 -1.23828,0.0723 1.34905,-0.0575 2.12444,0.0108 1.23828,-0.0723 z m -51.25195,0.73047 c -0.17728,0.0501 -0.42611,0.11737 -0.31641,0.10156 0.1159,-0.0167 0.2295,-0.046 0.34375,-0.0723 -0.009,-0.01 -0.0182,-0.0196 -0.0273,-0.0293 z m 11.01367,17.07031 c -0.28112,0.0373 -0.57669,-0.0356 -0.85742,0.002 -0.0497,0.007 0.0988,0.0154 0.14843,0.0234 -0.0867,0.0114 -0.17256,0.0292 -0.25976,0.0352 -0.45752,0.0328 -0.91519,0.0543 -1.37305,0.082 -0.52165,0.0229 -1.03976,-3.6e-4 -1.55859,-0.0156 -0.43646,0.0589 -0.81411,0.11094 -1.8086,0.22852 -0.56864,0.0674 -1.27739,0.0385 -1.90234,0.0137 -0.66937,0.0856 -1.33754,0.18226 -2.00976,0.24024 -0.68042,0.0586 -2.17819,0.011 -2.79297,0 -0.80304,-0.0312 -1.60671,-0.008 -2.41016,-0.0117 4.14286,3.87437 4.71308,7.22961 -2.00781,9.52148 0.78403,0.52573 1.6094,1.06489 3.94922,2.59766 1.23678,0.8102 2.45452,1.65456 3.72656,2.4082 3.1722,1.87943 4.14377,2.26827 7.07031,3.71484 0.6771,0.33469 1.3531,0.67132 2.0293,1.00782 0.73704,-0.36965 1.88496,-0.50781 3.62109,-0.7461 0.60615,1.18275 1.26044,2.34717 1.92383,3.50586 0.54787,0.26674 1.59267,0.75181 2.5957,1.21875 -0.1583,-1.22824 -0.31792,-2.43481 -0.48047,-3.92969 -0.13404,-1.23282 -5.61644,-0.56142 -2.84375,-0.77539 0.40115,-0.0309 0.80024,-0.068 1.20118,-0.10156 2.89051,-0.26211 2.14363,-0.29581 5.6875,-0.004 0.21835,0.0181 0.42303,0.11745 0.63867,0.15625 0.56225,0.10111 1.13159,0.15997 1.69336,0.26367 0.24043,0.0444 0.46662,0.18867 0.71094,0.17969 0.11028,-0.004 0.21991,-0.0194 0.33007,-0.0254 0.22338,-0.46305 0.45691,-0.92078 0.68555,-1.38086 0.51318,-1.09799 0.90834,-2.258 1.53906,-3.29296 0.57692,-0.94668 2.44915,-3.67123 4.20313,-6.05078 -0.0576,-0.008 -0.11139,-0.0344 -0.15625,-0.10352 -0.13633,-0.21008 -0.22233,-0.46319 -0.25977,-0.72656 -0.30648,-0.19175 -0.56917,-0.4596 -0.72265,-0.75391 -0.17612,-0.33757 0.27842,-0.51325 1,-0.61914 0.39617,-0.59453 1.21124,-0.82047 1.79296,-1.25586 0.60752,-0.45468 0.63981,-0.48681 0.86915,-0.66406 0.48042,-0.91146 0.9257,-1.63316 1.24804,-1.74024 0.61482,-1.18168 1.32284,-2.16816 2.08789,-2.98437 h -4.00976 c -0.40061,0.14865 -0.86738,0.25024 -1.30274,0.375 -0.60555,0.55724 -1.08383,0.79397 -1.11718,0.32226 -0.25969,0.0572 -0.53006,0.10576 -0.80079,0.1543 -0.19857,0.18865 -0.38295,0.36861 -0.5957,0.56641 -1.89378,1.7607 -4.15439,0.99575 -6.09961,-0.18555 -0.16605,4.8e-4 -0.33209,6.5e-4 -0.49805,0.002 -1.67558,0.5689 -2.63884,0.43861 -3.125,-0.16015 -4.10413,1.24664 -7.4828,0.60886 -9.65234,-1.0918 -0.0358,1.5e-4 -0.0716,-2.2e-4 -0.10742,0 z m 12.88476,1.25195 c 0.0854,-0.029 0.20597,-0.0925 0.29493,-0.125 -0.44541,-0.27985 -0.86147,-0.57448 -1.26172,-0.86523 -0.45734,0.20135 -0.91689,0.40902 -1.35938,0.56641 0.22125,0.14343 0.44137,0.28868 0.66407,0.42968 0.0663,0.042 0.15589,1.7e-4 0.23437,0 0.21933,-4.8e-4 0.43887,-5e-4 0.6582,-0.002 0.2564,-8.6e-4 0.51314,-0.003 0.76953,-0.004 z m 11.0879,3.49024 c -0.29801,0.56541 -0.60325,1.17762 -0.90625,1.77734 0.0651,-0.003 0.12197,-0.009 0.1875,-0.0117 0.35955,-0.44695 0.67568,-0.81932 0.9414,-1.10547 0.13876,-0.39992 0.28761,-0.78461 0.44336,-1.15429 -0.21012,0.15808 -0.3153,0.22308 -0.66601,0.49414 z m -85.08399,-0.54688 c -0.009,0.01 0.003,0.0686 0.002,0.0977 0.0667,0.0248 0.12475,0.054 0.18946,0.0801 -0.0856,-0.11028 -0.16423,-0.20642 -0.19141,-0.17774 z m 8.41016,5.12696 c -0.12825,0.0103 -0.23074,0.74368 -0.45703,1.93554 0.28164,0.32265 0.55382,0.65333 0.81836,0.99024 0.13319,-0.0823 0.26019,-0.16631 0.375,-0.25196 -0.42136,-1.88241 -0.59765,-2.68491 -0.73633,-2.67382 z m 0.73633,2.67382 c 0.0612,0.27323 0.17827,0.76622 0.25,1.08399 0.0421,0.0604 0.0915,0.1147 0.13281,0.17578 0.81467,1.20133 0.86683,1.24344 1.56055,2.37891 0.32307,0.5288 0.64272,1.05963 0.95703,1.59375 0.009,0.0151 0.0237,0.0635 0.0117,0.0508 -0.17799,-0.18918 -0.66894,-0.79417 -0.51368,-0.58594 0.22825,0.30611 0.48802,0.58749 0.73243,0.88086 0.28756,0.39531 0.58458,0.78396 0.86328,1.18555 0.51453,0.74128 1.54541,2.37937 1.93554,3.01562 0.15217,0.24816 0.28898,0.50516 0.4336,0.75781 0.0922,0.17225 0.17351,0.3509 0.27539,0.51758 0.078,0.12765 0.17627,0.24183 0.26367,0.36328 0.40413,0.55219 0.8293,1.08897 1.21484,1.6543 0.30947,0.45379 0.60458,0.91675 0.89844,1.38086 0.47932,0.2494 0.9681,0.48191 1.47071,0.68164 0.52903,0.26369 1.06184,0.51761 1.58593,0.79102 0.20306,0.10594 0.39627,0.2297 0.59375,0.3457 1.33547,0.78449 2.67917,1.58314 3.81641,2.64844 0.25604,0.22544 0.51717,0.44409 0.76758,0.67578 0.007,0.007 -0.0193,0.006 -0.0293,0.008 -0.14991,-0.0668 -0.2993,-0.13252 -0.44922,-0.19922 -0.007,0.004 -0.0275,0.007 -0.0215,0.0117 0.056,0.048 0.11519,0.0974 0.18359,0.125 0.27209,0.10999 0.55437,0.19006 0.83203,0.28516 0.64443,0.21938 1.30051,0.40991 1.9336,0.66015 1.08086,0.42722 2.10428,0.89775 3.125,1.44336 0.47507,0.27662 0.95348,0.54876 1.42578,0.83008 0.024,0.0143 0.32434,0.23379 0.33984,0.24609 0.006,0.005 0.0197,0.0204 0.0117,0.0195 -0.0574,-0.006 -0.21337,-0.0727 -0.16797,-0.0371 0.0703,0.055 0.16526,0.0663 0.24805,0.0996 0.16212,0.0607 0.33943,0.09 0.48633,0.18165 0.0681,0.0424 -0.16004,-0.0301 -0.24024,-0.0274 -0.10749,0.004 -0.42259,0.0204 -0.31836,0.0469 0.2099,0.0534 0.4348,0.002 0.64844,0.0371 0.0238,0.004 -0.0515,0.0666 -0.0273,0.0664 0.47494,-0.004 0.94763,-0.0524 1.42188,-0.0781 1.06858,0.10405 2.39144,0.1144 3.46093,0.50586 0.24182,0.0885 0.47527,0.19767 0.71289,0.29687 0.1888,0.0281 0.27654,0.0422 0.47852,0.0781 0.11075,7.1e-4 0.22128,-1e-4 0.33203,0.002 1.5944,0.0105 2.04264,0.0165 3.7207,0.0215 0.23919,0 0.47761,1e-4 0.7168,-0.002 -0.39404,0.27044 -0.0543,0.0121 0.81641,-0.0449 0.59317,-0.0388 1.1882,-0.0934 1.78125,-0.0527 0.41468,0.0285 0.82545,0.0819 1.23242,0.15429 0.91322,-0.40121 1.92181,-0.75071 3.0293,-1.03515 -0.30739,-0.15288 -0.61453,-0.30626 -0.92188,-0.45899 -1.13083,-0.56197 -2.27863,-1.09081 -3.39258,-1.68555 -1.83732,-0.98096 -3.66847,-1.97504 -5.45898,-3.03906 -1.32859,-0.78952 -2.6005,-1.66962 -3.89258,-2.51758 -5.60534,-3.6787 -4.25217,-2.76918 -8.59765,-5.82812 -1.35554,-0.98826 -2.72381,-1.95916 -4.06641,-2.96484 -0.34816,-0.26082 -0.66272,-0.56412 -1.00391,-0.83399 -1.46842,-1.16146 -1.40095,-1.11763 -2.84375,-2.01367 -0.47895,-0.29746 -0.93965,-0.6276 -1.44531,-0.87695 -0.54847,-0.27047 -1.13649,-0.45067 -1.70508,-0.67579 -0.87259,-0.36278 -1.75226,-0.71167 -2.61914,-1.08789 -1.84276,-0.79975 -3.3818,-1.57998 -5.17969,-2.58398 -0.53896,-0.30098 -0.7771,-0.45611 -1.00781,-0.60742 0.28686,0.74109 -0.047,1.37473 -0.79883,1.93554 z m 75.13867,-2.43945 c -1.76953,2.35774 -3.75764,5.19504 -4.31641,6.11133 -0.6392,1.04818 -1.04053,2.22576 -1.56055,3.33789 -0.0892,0.17736 -0.11833,0.2492 -0.19726,0.41016 0.47978,-0.0521 0.95923,-0.10664 1.43945,-0.15039 0.45514,-0.11635 1.68861,-0.43618 2.5586,-0.66211 -0.26726,-0.20593 -0.53049,-0.41745 -0.80274,-0.61719 -0.4446,-0.32619 -0.98562,0.49496 -1.47851,0.74219 -0.11269,0.0624 -0.3469,0.31597 -0.3379,0.1875 0.0115,-0.16093 0.24064,-0.21697 0.34961,-0.33594 0.0345,-0.0376 0.0567,-0.0846 0.0781,-0.13086 0.0314,-0.0678 -0.11137,0.0988 -0.17187,0.14258 -0.0108,0.008 0.006,-0.0241 0.008,-0.0371 0.23194,-0.53238 0.3925,-0.86531 0.57617,-1.26563 v -0.002 c 0.18378,-0.40054 0.38593,-0.8357 0.54102,-1.11328 0.2032,-0.29042 0.0609,-0.0927 0.20507,-0.30078 -0.008,-0.004 -0.0156,-0.008 -0.0234,-0.0117 -10e-4,-6.2e-4 -0.003,0.002 -0.004,0.002 -0.0569,0.0884 -0.11658,0.19901 -0.17578,0.30469 -0.0581,0.0724 0.0701,-0.34393 0.17578,-0.30469 0.0881,-0.13684 0.17577,-0.24114 0.26172,-0.33789 0.2937,-0.4315 0.70722,-1.03256 0.6836,-1.00976 1.8e-4,-7e-5 0.006,-0.008 0.006,-0.008 0.004,-0.002 0.10425,-0.12612 0.1289,-0.15429 0.32021,-0.49234 0.63887,-1.00045 1.01563,-1.45508 0.003,-0.004 0.007,-0.008 0.01,-0.0117 0.0462,-0.0652 0.11035,-0.15534 0.14062,-0.19336 -0.006,-0.004 -0.0117,-0.009 -0.0176,-0.0137 0.007,0.004 0.0144,0.008 0.0215,0.0117 0.009,-0.0105 0.0551,-0.0822 0.043,-0.0606 -0.015,0.0267 -0.0223,0.0362 -0.0371,0.0625 0.007,0.004 0.0129,0.008 0.0195,0.0117 0.0313,-0.0347 0.0616,-0.0697 0.0937,-0.10352 0.14936,-0.26115 0.36677,-0.55127 0.63086,-0.86523 0.001,-0.0515 -0.001,-0.1029 0.002,-0.1543 0.0718,-1.25663 0.0895,-1.66342 0.13477,-2.02539 z m -0.88477,3.14258 c -0.0203,0.036 -0.0307,0.0507 -0.0508,0.0859 0.0222,-0.0255 0.0458,-0.0491 0.0684,-0.0742 -0.006,-0.004 -0.012,-0.007 -0.0176,-0.0117 z m -0.0566,0.21484 -0.16015,0.14844 c -0.53295,0.91753 -0.98464,1.63223 -1.24024,2.08203 0.41584,-0.0954 1.02608,0.26685 1.78906,0.8086 0.12037,-0.79886 0.15811,-1.04503 0.18946,-1.26758 -0.64341,-0.54042 -0.87073,-1.07369 -0.57813,-1.77149 z m -0.83594,1.09766 c 0.07,-0.0886 -0.14994,0.16821 -0.21875,0.25781 -0.0125,0.0163 -0.0231,0.0341 -0.0351,0.0508 0.0591,-0.0691 0.0664,-0.0711 0.2539,-0.30859 z m -0.71484,2.16602 c 0.0951,0.0819 0.24561,0.15342 0.44727,0.22265 -0.14949,-0.0734 -0.29762,-0.14964 -0.44727,-0.22265 z m -23.82227,6.25 c 0.0418,0.0664 0.098,0.16439 0.14063,0.23242 0.0663,-0.072 0.13462,-0.14016 0.20312,-0.20899 -0.11409,0.005 -0.22852,-0.004 -0.34375,-0.0234 z m -60.27929,5.26953 c -0.004,0.0455 -0.008,0.0888 -0.0117,0.13476 0.0179,-0.0225 0.0368,-0.0499 0.0547,-0.0723 -0.0147,-0.0206 -0.0283,-0.0419 -0.043,-0.0625 z m 101.48828,4.41601 c -0.068,0.0358 -0.13672,0.0703 -0.20508,0.10547 -0.0667,0.1831 -0.14405,0.36925 -0.21875,0.55469 0.088,0.0359 0.17678,0.0727 0.26563,0.10937 0.0653,-0.0333 0.1302,-0.0617 0.19531,-0.0996 -0.01,-0.20975 -0.0271,-0.46857 -0.0371,-0.66992 z m -95.80078,4.25391 c -0.082,0.0382 -0.15238,0.0784 -1.29297,0.60742 -1.59111,0.73797 -3.20618,1.41339 -4.82813,2.08008 -4.22412,1.73628 -7.79999,1.94831 -10.50195,1.1875 v 10.91406 h 39.58203 c -0.83304,-0.40834 -1.63523,-0.84287 -2.42773,-1.35742 -0.5616,-0.36461 -0.75083,-0.56251 -0.44727,-0.26758 -0.0399,-0.0164 -0.0804,-0.0296 -0.11914,-0.0488 -0.23249,-0.11525 -0.4629,-0.23622 -0.69336,-0.35547 -0.1407,-0.0728 -0.26524,-0.1865 -0.41992,-0.2207 -0.12785,-0.0283 0.24864,0.10553 0.33594,0.20313 0.0487,0.0545 -0.14164,-0.0394 -0.21094,-0.0625 -0.39048,-0.13038 -0.77823,-0.26589 -1.16797,-0.39844 -1.17615,-0.4027 -1.16957,-0.37648 -2.59961,-1.03516 -0.3703,-0.17056 -0.74086,-0.34346 -1.08594,-0.56054 -0.66902,-0.42093 -1.31663,-0.87569 -1.94921,-1.34961 -0.18512,-0.13869 -1.37109,-1.18591 -1.66602,-1.44532 -0.15052,-0.13142 -0.28977,-0.27674 -0.45117,-0.39453 0.024,0.0391 0.0482,0.0781 0.0723,0.11719 0.002,0.008 0.0114,0.0294 0.008,0.0254 -0.50713,-0.28337 -0.98308,-0.64013 -1.5332,-0.83398 -1.31862,-0.55599 -2.58149,-1.24121 -3.82618,-1.94532 -0.21756,-0.12307 -0.44753,-0.22823 -0.64843,-0.37695 -0.7034,-0.52068 -1.37402,-1.08619 -2.06055,-1.62891 -1.52182,-1.88683 -1.34761,-1.57728 -2.06836,-2.85351 z m 37.4375,0.0957 c 0.30624,0.13298 0.61359,0.26182 0.92383,0.38477 0.15181,0.0602 -0.28087,-0.16831 -0.43555,-0.22071 -0.28687,-0.0971 -0.3002,-0.0993 -0.48828,-0.16406 z m 66.22656,4.45313 c -0.28731,0.34241 -0.45096,0.53382 -0.7793,0.92773 -1.595,1.99011 -3.28544,3.90783 -4.78515,5.9707 -0.66454,0.91409 -1.28817,2.12433 -1.9336,3.3418 h 7.49805 z m -13.37109,7.89257 c -0.46901,0.3087 -0.9786,0.57028 -1.53125,0.78125 -0.24234,0.34566 -0.50197,0.62564 -0.77149,0.86719 0.0697,-0.003 0.13938,-0.005 0.20899,-0.01 0.50587,-0.18652 1.01558,-0.36774 1.36328,-0.75977 0.19469,-0.21952 0.45965,-0.54144 0.73047,-0.87891 z" />
    </clipPath>
    <linearGradient
       inkscape:collect="always"
       xlink:href="#linearGradient960"
       id="linearGradient966"
       x1="0"
       y1="150"
       x2="300"
       y2="150"
       gradientUnits="userSpaceOnUse" />
    <linearGradient
       inkscape:collect="always"
       xlink:href="#linearGradient972"
       id="linearGradient974"
       x1="0"
       y1="150"
       x2="300"
       y2="150"
       gradientUnits="userSpaceOnUse" />
  </defs>
  <g
     id="a" />
  <g
     id="b"
     style="fill-opacity:1;fill:url(#linearGradient966);stroke:url(#linearGradient974);opacity:0">
    <g
       id="c"
       style="fill-opacity:1;fill:url(#linearGradient966);stroke:url(#linearGradient974)">
      <g
         id="g11"
         style="fill-opacity:1;fill:url(#linearGradient966);stroke:url(#linearGradient974)">
        <rect
           class="d"
           x="4.73"
           y="4.73"
           width="290.53"
           height="290.53"
           rx="25.27"
           ry="25.27"
           id="rect7"
           style="fill-opacity:1;fill:url(#linearGradient966);stroke:url(#linearGradient974)" />
        <path
           d="M270,9.47c11.32,0,20.53,9.21,20.53,20.53v240c0,11.32-9.21,20.53-20.53,20.53H30c-11.32,0-20.53-9.21-20.53-20.53V30c0-11.32,9.21-20.53,20.53-20.53h240m0-9.47H30C13.43,0,0,13.43,0,30v240c0,16.57,13.43,30,30,30h240c16.57,0,30-13.43,30-30V30c0-16.57-13.43-30-30-30h0Z"
           id="path9"
           style="fill-opacity:1;fill:url(#linearGradient966);stroke:url(#linearGradient974)" />
      </g>
    </g>
  </g>
  <g
     id="a-5"
     transform="translate(-42.936018,-24.05353)" />
  <rect
     style="display:inline;fill:none;stroke:#000000;stroke-width:10;stroke-miterlimit:4;stroke-dasharray:none"
     id="rect933"
     width="155.43132"
     height="145.76355"
     x="72.28434"
     y="117.24652"
     ry="9.3543577" />
  <path
     id="rect1039"
     clip-path="url(#clipPath3948)"
     style="display:inline;fill:none;stroke:#000000;stroke-width:12.742;stroke-miterlimit:4;stroke-dasharray:none"
     d="m 140.52539,40.060547 c -27.54012,0 -49.710937,22.170816 -49.710937,49.710937 v 31.843746 c 0.823728,0.0183 1.647317,0.0324 2.470703,0.0508 1.492334,0.0333 2.985503,0.0374 4.476563,0.10742 2.680091,0.12589 5.356901,0.32029 8.035161,0.48047 5.70177,0.42083 5.76609,0.42207 11.42382,0.84765 0.79642,0.0599 1.59242,0.11958 2.38868,0.18164 7.5e-4,-0.002 0.001,-0.004 0.002,-0.006 0.0432,-0.10652 0.20934,-0.003 0.33594,0.0332 0.0117,9.3e-4 0.0234,10e-4 0.0352,0.002 0.32249,0.0256 0.86654,-0.2059 0.98047,0.0703 0.58703,-0.0616 1.16494,0.0533 1.74609,0.10742 0.27474,-0.0166 0.35823,0.0814 0.5879,0.15235 0.0513,0.0159 -0.099,-0.0433 -0.14649,-0.0684 -0.023,-0.0122 0.0503,-0.01 0.0762,-0.0117 0.19077,-0.0276 0.0916,-0.017 0.52539,0.043 0.0843,0.0117 0.1655,0.0445 0.25,0.0547 0.3085,0.0373 0.67157,0.002 0.97461,-0.004 2.4971,-0.0362 4.99477,-0.0137 7.49219,-0.0117 3.54423,-9e-5 7.08857,-0.002 10.63281,-0.002 4.37439,4.7e-4 8.74866,0.002 13.12305,0.002 h 0.64062 c 0.39495,0 0.78922,-0.0213 1.1836,0 0.57777,0.0311 1.14319,0.12329 1.7207,0.15039 1.11939,-0.0318 2.23947,-0.0402 3.35938,-0.0352 1.27976,0.035 2.54461,0.18027 3.82617,0.14257 3.30701,-0.0478 6.6162,-0.0157 9.92383,-0.0137 1.74663,-1e-5 1.48145,10e-4 3.3789,0 0.37318,-2.5e-4 0.7487,0.0222 1.1211,-0.002 1.1065,-0.0718 2.19202,-0.29499 3.28125,-0.48633 0.47112,-0.10099 0.95803,-0.1481 1.42382,-0.27344 0.4141,-0.11142 0.81196,-0.28079 1.22266,-0.40429 0.30404,-0.0629 0.28619,-0.0777 0.67969,-0.0312 0.0918,0.0109 0.17508,0.0683 0.26758,0.0703 0.0315,5e-4 0.0401,-0.0554 0.0703,-0.0644 0.0909,-0.0263 0.18725,-0.0264 0.28125,-0.0371 0.28747,-0.0328 0.57367,-0.0626 0.86133,-0.0937 0.2276,-0.0237 0.45564,-0.0523 0.68359,-0.0723 0.69765,-0.0612 1.39912,-0.0838 2.0957,-0.15625 1.23611,-0.12843 2.47115,-0.34497 3.70118,-0.51758 0.79662,-0.14414 1.6042,-0.18564 2.41211,-0.17187 V 89.771484 c 0,-27.540121 -22.17082,-49.710937 -49.71094,-49.710937 z M 90.814453,123.39258 v 6.42578 c 0,27.54012 22.170817,49.71094 49.710937,49.71094 h 8.12305 c 27.54012,0 49.71094,-22.17082 49.71094,-49.71094 v -6.39453 c -0.7255,-0.0151 -1.45115,0.0259 -2.16602,0.1582 -1.27286,0.17846 -2.54726,0.39648 -3.82617,0.5293 -0.67603,0.0702 -1.35613,0.093 -2.03321,0.15234 -0.22537,0.0197 -0.45076,0.0451 -0.67578,0.0684 -0.27729,0.03 -0.55487,0.0588 -0.83203,0.0898 -0.13095,0.0147 -0.26086,0.0448 -0.39258,0.0488 -0.23581,0.007 -0.47117,-0.009 -0.70703,-0.0156 -0.31148,0.0884 0.24268,-0.0764 -0.61523,0.20703 -0.70008,0.23128 -1.41751,0.36984 -2.14453,0.48828 -1.19377,0.2097 -2.37427,0.43567 -3.58789,0.51367 -0.37261,0.024 -0.74577,0.002 -1.11914,0.002 -1.89868,0.001 -1.63476,-7e-5 -3.38282,0 -3.2901,-0.002 -6.58163,-0.0333 -9.87109,0.0137 -0.6096,0.0172 -1.20642,0.0219 -1.81641,-0.0176 -1.3319,-0.0864 0.0902,-0.0458 -1.53711,-0.12109 -0.17744,-0.008 -0.35557,-0.003 -0.5332,-0.004 -1.14842,-0.005 -2.29541,0.008 -3.44336,0.0312 -0.21223,-0.0122 -0.42495,-0.0166 -0.63672,-0.0352 -0.84762,-0.0745 0.0793,-0.0522 -0.99023,-0.11132 -0.60625,-0.0335 -1.21751,0.025 -1.82422,0 -4.37444,6e-5 -8.74862,-0.001 -13.12305,-0.002 -3.54459,0 -7.09018,10e-4 -10.63476,0.002 -2.48519,-0.002 -4.9702,-0.0241 -7.45508,0.0117 -0.47196,0.009 -0.9227,0.0192 -1.39258,-0.0371 -0.0561,-0.007 -0.11092,-0.0245 -0.16602,-0.0371 0.001,-0.0116 0.0153,-0.0332 0.004,-0.0352 -0.0377,-0.008 -0.075,0.008 -0.11328,0.0117 -0.27343,0.0152 -0.46458,-0.0195 -0.71875,-0.0742 -0.0371,-8.2e-4 -0.0742,-0.003 -0.11133,-0.004 -0.55093,-0.0652 -1.09113,-0.1829 -1.65039,-0.0957 -0.0125,1.6e-4 -0.0247,-0.002 -0.0371,-0.002 -0.002,0.004 -0.002,0.007 -0.004,0.0117 -0.11266,0.27433 -0.5486,0.0175 -0.87305,-0.0547 -0.0871,-0.008 -0.17428,-0.002 -0.26172,-0.0137 -0.12098,-0.0168 -0.34065,0.0403 -0.37305,-0.0586 -0.74291,-0.0575 -1.48548,-0.11404 -2.22851,-0.16992 -5.60938,-0.42194 -5.7513,-0.43083 -11.39649,-0.84766 -2.65702,-0.15929 -5.31184,-0.35157 -7.9707,-0.47656 -1.489235,-0.07 -2.982148,-0.0742 -4.472656,-0.10742 -0.81036,-0.0181 -1.621127,-0.0327 -2.431641,-0.0508 z m 96.994137,1.03515 c -0.0741,0.0212 -0.0336,0.0139 -0.0742,0.0254 0.0223,-0.004 0.27427,-0.0282 0.0742,-0.0254 z"
     transform="translate(5.4130235)" />
  <path
     style="fill:#ffffff;stroke:#000000;stroke-width:6.40518;stroke-miterlimit:4;stroke-dasharray:none"
     d="m 79.538937,257.28837 c -0.351411,-0.14139 -0.973481,-0.90403 -1.382377,-1.69475 -0.644792,-1.24689 -0.743447,-9.9844 -0.743447,-65.84466 v -64.407 l 1.46938,-1.46938 1.469379,-1.46938 h 69.124798 c 44.57162,0 69.59144,0.17742 70.43854,0.49949 2.90954,1.1062 2.79642,-1.79605 2.65316,68.07367 l -0.13134,64.05417 -1.21866,1.29714 -1.21866,1.29714 -69.91092,-0.0397 c -38.45101,-0.0218 -70.198441,-0.15536 -70.549853,-0.29675 z"
     id="path4167" />
</svg>
