<?xml version="1.0" encoding="UTF-8"?>
<svg id="Layer_2" xmlns="http://www.w3.org/2000/svg" xmlns:xlink="http://www.w3.org/1999/xlink" viewBox="0 0 1920 294.56">
    <defs>
        <!-- <style>.cls-1{fill:none;}.cls-2{fill:url(#linear-gradient);}.cls-3{clip-path:url(#clippath);}.cls-4{fill:#00b300;}.cls-5,.cls-6{fill:#2b2b2b;}.cls-7{fill:url(#linear-gradient-8);}.cls-8{fill:url(#linear-gradient-9);}.cls-9{fill:url(#linear-gradient-3);}.cls-10{fill:url(#linear-gradient-4);}.cls-11{fill:url(#linear-gradient-2);}.cls-12{fill:url(#linear-gradient-6);}.cls-13{fill:url(#linear-gradient-7);}.cls-14{fill:url(#linear-gradient-5);}.cls-6{font-family:Nove, Nove;font-size:36px;}.cls-15{fill:url(#linear-gradient-14);}.cls-16{fill:url(#linear-gradient-18);}.cls-17{fill:url(#linear-gradient-20);}.cls-18{fill:url(#linear-gradient-21);}.cls-19{fill:url(#linear-gradient-15);}.cls-20{fill:url(#linear-gradient-19);}.cls-21{fill:url(#linear-gradient-16);}.cls-22{fill:url(#linear-gradient-17);}.cls-23{fill:url(#linear-gradient-13);}.cls-24{fill:url(#linear-gradient-12);}.cls-25{fill:url(#linear-gradient-10);}.cls-26{fill:url(#linear-gradient-11);}</style> -->
        <clipPath id="clippath">
            <rect class="cls-1" x=".35" y="145.93" width="1909.72" height="77.82" />
        </clipPath>
        <linearGradient id="linear-gradient" x1="-89.11" y1="223.63" x2="-92.28" y2="149.38" gradientTransform="matrix(1, 0, 0, 1, 0, 0)" gradientUnits="userSpaceOnUse">
            <stop offset="0" stop-color="#c90a00" />
            <stop offset="1" stop-color="#ffd500" />
        </linearGradient>
        <linearGradient id="linear-gradient-2" x1="90.31" x2="87.15" xlink:href="#linear-gradient" />
        <linearGradient id="linear-gradient-3" x1="269.74" x2="266.57" xlink:href="#linear-gradient" />
        <linearGradient id="linear-gradient-4" x1="449.16" x2="446" xlink:href="#linear-gradient" />
        <linearGradient id="linear-gradient-5" x1="628.59" x2="625.42" xlink:href="#linear-gradient" />
        <linearGradient id="linear-gradient-6" x1="808.01" x2="804.85" xlink:href="#linear-gradient" />
        <linearGradient id="linear-gradient-7" x1="987.44" y1="223.63" x2="984.27" y2="149.38" xlink:href="#linear-gradient" />
        <linearGradient id="linear-gradient-8" x1="1166.86" y1="223.63" x2="1163.7" y2="149.38" xlink:href="#linear-gradient" />
        <linearGradient id="linear-gradient-9" x1="1346.29" x2="1343.12" y2="149.38" xlink:href="#linear-gradient" />
        <linearGradient id="linear-gradient-10" x1="1525.71" y1="223.63" x2="1522.55" y2="149.38" xlink:href="#linear-gradient" />
        <linearGradient id="linear-gradient-11" x1="1705.14" y1="223.63" x2="1701.97" y2="149.38" xlink:href="#linear-gradient" />
        <linearGradient id="linear-gradient-12" x1="1884.56" y1="223.63" x2="1881.4" y2="149.38" xlink:href="#linear-gradient" />
        <linearGradient id="linear-gradient-13" x1="269.21" y1="281.97" x2="269.21" y2="23.8" gradientTransform="matrix(1, 0, 0, 1, 0, 0)" gradientUnits="userSpaceOnUse">
            <stop offset="0" stop-color="#422407" />
            <stop offset="1" stop-color="#8f4907" />
        </linearGradient>
        <linearGradient id="linear-gradient-14" x1="269.42" y1="286.63" x2="269.42" y2="137.54" gradientTransform="matrix(1, 0, 0, 1, 0, 0)" gradientUnits="userSpaceOnUse">
            <stop offset="0" stop-color="#241100" />
            <stop offset="1" stop-color="#432507" />
        </linearGradient>
        <linearGradient id="linear-gradient-15" x1="239.81" y1="125.49" x2="239.81" y2="9.97" gradientTransform="matrix(1, 0, 0, 1, 0, 0)" gradientUnits="userSpaceOnUse">
            <stop offset="0" stop-color="#ff0" />
            <stop offset="1" stop-color="red" />
        </linearGradient>
        <linearGradient id="linear-gradient-16" x1="650.66" y1="201.48" x2="646.34" y2="93.67" gradientTransform="matrix(1, 0, 0, 1, 0, 0)" gradientUnits="userSpaceOnUse">
            <stop offset="0" stop-color="#000" />
            <stop offset="1" stop-color="#595959" />
        </linearGradient>
        <linearGradient id="linear-gradient-17" x1="854.37" y1="222.96" x2="850.91" y2="136.82" gradientTransform="translate(1709.57) rotate(-180) scale(1 -1)" xlink:href="#linear-gradient-16" />
        <linearGradient id="linear-gradient-18" x1="622.69" y1="201.72" x2="618.54" y2="98.25" gradientTransform="translate(468)" xlink:href="#linear-gradient-16" />
        <linearGradient id="linear-gradient-19" x1="298.37" y1="183.98" x2="294.91" y2="97.84" gradientTransform="translate(1709.57) rotate(-180) scale(1 -1)" xlink:href="#linear-gradient-16" />
        <linearGradient id="linear-gradient-20" x1="-14.11" y1="203.12" x2="-16.53" y2="142.82" gradientTransform="translate(1740)" xlink:href="#linear-gradient-16" />
        <linearGradient id="linear-gradient-21" x1="0" y1="237.44" x2="1920" y2="237.44" gradientTransform="matrix(1, 0, 0, 1, 0, 0)" gradientUnits="userSpaceOnUse">
            <stop offset="0" stop-color="#c1272d" />
            <stop offset=".16" stop-color="#ca242b" />
            <stop offset=".42" stop-color="#e31e25" />
            <stop offset=".5" stop-color="#ed1c24" />
            <stop offset=".75" stop-color="#f15a24" />
            <stop offset=".99" stop-color="#d9e021" />
        </linearGradient>
    </defs>
    <g id="Inferno">
        <g id="Layer_2-2">
            <g class="cls-3">
                <g>
                    <path class="cls-2" d="M-178.78,227.38s7.38-21.46,6.82-30.24-4.32-21.6,2.32-27.36c2.48,7.8,2.97,15.6,5.45,23.4,8.76-4.26,13.72-15.13,11.19-24.54-.86-3.19-2.46-6.21-2.65-9.51s1.77-7.1,5.06-7.35c-2.55,9.22,2.28,18.64,6.09,27.4,3.82,8.77,6.47,19.76,.51,27.24,10.89-2.7,18.51-14.8,16.24-25.79-1.33-6.42-4.3-15.38,1.81-17.74-2.13,17.29,18.96,33.99,10.88,49.42,8.68-.3,14.48-9.39,16.08-17.92s.67-17.56,3.59-25.73c5.8,10.34,9.05,22.09,9.4,33.94,.05,1.7,.09,3.54,1.15,4.87,2.89,3.63,8.73-.66,10.01-5.12,2.65-9.24,.25-22.19,9.1-25.94,1.93,10.37,1.48,21.18-1.3,31.36,6.96,5.96,18.05-2.86,18.58-12.01s-4.72-17.49-7.31-26.28-.92-20.66,7.77-23.55c-5,8.54,1.07,19.05,6.7,27.18,5.63,8.13,11.01,19.32,5.03,27.2,12.08-7.8,17.19-24.82,11.39-37.99l7.2,16.58c5.27-5.67,10.82-14.02,6.44-20.4,7.37,7.49,5.6,22.44,5.25,30.06-.41,9.09,6.62,24.31,6.62,33.92" />
                    <path class="cls-11" d="M.65,227.38s7.38-21.46,6.82-30.24-4.32-21.6,2.32-27.36c2.48,7.8,2.97,15.6,5.45,23.4,8.76-4.26,13.72-15.13,11.19-24.54-.86-3.19-2.46-6.21-2.65-9.51s1.77-7.1,5.06-7.35c-2.55,9.22,2.28,18.64,6.09,27.4,3.82,8.77,6.47,19.76,.51,27.24,10.89-2.7,18.51-14.8,16.24-25.79-1.33-6.42-4.3-15.38,1.81-17.74-2.13,17.29,18.96,33.99,10.88,49.42,8.68-.3,14.48-9.39,16.08-17.92s.67-17.56,3.59-25.73c5.8,10.34,9.05,22.09,9.4,33.94,.05,1.7,.09,3.54,1.15,4.87,2.89,3.63,8.73-.66,10.01-5.12,2.65-9.24,.25-22.19,9.1-25.94,1.93,10.37,1.48,21.18-1.3,31.36,6.96,5.96,18.05-2.86,18.58-12.01s-4.72-17.49-7.31-26.28-.92-20.66,7.77-23.55c-5,8.54,1.07,19.05,6.7,27.18,5.63,8.13,11.01,19.32,5.03,27.2,12.08-7.8,17.19-24.82,11.39-37.99l7.2,16.58c5.27-5.67,10.82-14.02,6.44-20.4,7.37,7.49,5.6,22.44,5.25,30.06-.41,9.09,6.62,24.31,6.62,33.92" />
                    <path class="cls-9" d="M180.07,227.38s7.38-21.46,6.82-30.24-4.32-21.6,2.32-27.36c2.48,7.8,2.97,15.6,5.45,23.4,8.76-4.26,13.72-15.13,11.19-24.54-.86-3.19-2.46-6.21-2.65-9.51s1.77-7.1,5.06-7.35c-2.55,9.22,2.28,18.64,6.09,27.4,3.82,8.77,6.47,19.76,.51,27.24,10.89-2.7,18.51-14.8,16.24-25.79-1.33-6.42-4.3-15.38,1.81-17.74-2.13,17.29,18.96,33.99,10.88,49.42,8.68-.3,14.48-9.39,16.08-17.92s.67-17.56,3.59-25.73c5.8,10.34,9.05,22.09,9.4,33.94,.05,1.7,.09,3.54,1.15,4.87,2.89,3.63,8.73-.66,10.01-5.12,2.65-9.24,.25-22.19,9.1-25.94,1.93,10.37,1.48,21.18-1.3,31.36,6.96,5.96,18.05-2.86,18.58-12.01s-4.72-17.49-7.31-26.28-.92-20.66,7.77-23.55c-5,8.54,1.07,19.05,6.7,27.18,5.63,8.13,11.01,19.32,5.03,27.2,12.08-7.8,17.19-24.82,11.39-37.99l7.2,16.58c5.27-5.67,10.82-14.02,6.44-20.4,7.37,7.49,5.6,22.44,5.25,30.06-.41,9.09,6.62,24.31,6.62,33.92" />
                    <path class="cls-10" d="M359.5,227.38s7.38-21.46,6.82-30.24-4.32-21.6,2.32-27.36c2.48,7.8,2.97,15.6,5.45,23.4,8.76-4.26,13.72-15.13,11.19-24.54-.86-3.19-2.46-6.21-2.65-9.51s1.77-7.1,5.06-7.35c-2.55,9.22,2.28,18.64,6.09,27.4,3.82,8.77,6.47,19.76,.51,27.24,10.89-2.7,18.51-14.8,16.24-25.79-1.33-6.42-4.3-15.38,1.81-17.74-2.13,17.29,18.96,33.99,10.88,49.42,8.68-.3,14.48-9.39,16.08-17.92s.67-17.56,3.59-25.73c5.8,10.34,9.05,22.09,9.4,33.94,.05,1.7,.09,3.54,1.15,4.87,2.89,3.63,8.73-.66,10.01-5.12,2.65-9.24,.25-22.19,9.1-25.94,1.93,10.37,1.48,21.18-1.3,31.36,6.96,5.96,18.05-2.86,18.58-12.01s-4.72-17.49-7.31-26.28-.92-20.66,7.77-23.55c-5,8.54,1.07,19.05,6.7,27.18,5.63,8.13,11.01,19.32,5.03,27.2,12.08-7.8,17.19-24.82,11.39-37.99l7.2,16.58c5.27-5.67,10.82-14.02,6.44-20.4,7.37,7.49,5.6,22.44,5.25,30.06-.41,9.09,6.62,24.31,6.62,33.92" />
                    <path class="cls-14" d="M538.92,227.38s7.38-21.46,6.82-30.24-4.32-21.6,2.32-27.36c2.48,7.8,2.97,15.6,5.45,23.4,8.76-4.26,13.72-15.13,11.19-24.54-.86-3.19-2.46-6.21-2.65-9.51s1.77-7.1,5.06-7.35c-2.55,9.22,2.28,18.64,6.09,27.4,3.82,8.77,6.47,19.76,.51,27.24,10.89-2.7,18.51-14.8,16.24-25.79-1.33-6.42-4.3-15.38,1.81-17.74-2.13,17.29,18.96,33.99,10.88,49.42,8.68-.3,14.48-9.39,16.08-17.92s.67-17.56,3.59-25.73c5.8,10.34,9.05,22.09,9.4,33.94,.05,1.7,.09,3.54,1.15,4.87,2.89,3.63,8.73-.66,10.01-5.12,2.65-9.24,.25-22.19,9.1-25.94,1.93,10.37,1.48,21.18-1.3,31.36,6.96,5.96,18.05-2.86,18.58-12.01s-4.72-17.49-7.31-26.28-.92-20.66,7.77-23.55c-5,8.54,1.07,19.05,6.7,27.18,5.63,8.13,11.01,19.32,5.03,27.2,12.08-7.8,17.19-24.82,11.39-37.99l7.2,16.58c5.27-5.67,10.82-14.02,6.44-20.4,7.37,7.49,5.6,22.44,5.25,30.06-.41,9.09,6.62,24.31,6.62,33.92" />
                    <path class="cls-12" d="M718.35,227.38s7.38-21.46,6.82-30.24-4.32-21.6,2.32-27.36c2.48,7.8,2.97,15.6,5.45,23.4,8.76-4.26,13.72-15.13,11.19-24.54-.86-3.19-2.46-6.21-2.65-9.51s1.77-7.1,5.06-7.35c-2.55,9.22,2.28,18.64,6.09,27.4,3.82,8.77,6.47,19.76,.51,27.24,10.89-2.7,18.51-14.8,16.24-25.79-1.33-6.42-4.3-15.38,1.81-17.74-2.13,17.29,18.96,33.99,10.88,49.42,8.68-.3,14.48-9.39,16.08-17.92s.67-17.56,3.59-25.73c5.8,10.34,9.05,22.09,9.4,33.94,.05,1.7,.09,3.54,1.15,4.87,2.89,3.63,8.73-.66,10.01-5.12,2.65-9.24,.25-22.19,9.1-25.94,1.93,10.37,1.48,21.18-1.3,31.36,6.96,5.96,18.05-2.86,18.58-12.01s-4.72-17.49-7.31-26.28-.92-20.66,7.77-23.55c-5,8.54,1.07,19.05,6.7,27.18,5.63,8.13,11.01,19.32,5.03,27.2,12.08-7.8,17.19-24.82,11.39-37.99l7.2,16.58c5.27-5.67,10.82-14.02,6.44-20.4,7.37,7.49,5.6,22.44,5.25,30.06-.41,9.09,6.62,24.31,6.62,33.92" />
                    <path class="cls-13" d="M897.77,227.38s7.38-21.46,6.82-30.24-4.32-21.6,2.32-27.36c2.48,7.8,2.97,15.6,5.45,23.4,8.76-4.26,13.72-15.13,11.19-24.54-.86-3.19-2.46-6.21-2.65-9.51s1.77-7.1,5.06-7.35c-2.55,9.22,2.28,18.64,6.09,27.4,3.82,8.77,6.47,19.76,.51,27.24,10.89-2.7,18.51-14.8,16.24-25.79-1.33-6.42-4.3-15.38,1.81-17.74-2.13,17.29,18.96,33.99,10.88,49.42,8.68-.3,14.48-9.39,16.08-17.92s.67-17.56,3.59-25.73c5.8,10.34,9.05,22.09,9.4,33.94,.05,1.7,.09,3.54,1.15,4.87,2.89,3.63,8.73-.66,10.01-5.12,2.65-9.24,.25-22.19,9.1-25.94,1.93,10.37,1.48,21.18-1.3,31.36,6.96,5.96,18.05-2.86,18.58-12.01s-4.72-17.49-7.31-26.28c-2.58-8.79-.92-20.66,7.77-23.55-5,8.54,1.07,19.05,6.7,27.18s11.01,19.32,5.03,27.2c12.08-7.8,17.19-24.82,11.39-37.99l7.2,16.58c5.27-5.67,10.82-14.02,6.44-20.4,7.37,7.49,5.6,22.44,5.25,30.06-.41,9.09,6.62,24.31,6.62,33.92" />
                    <path class="cls-7" d="M1077.2,227.38s7.38-21.46,6.82-30.24c-.56-8.78-4.32-21.6,2.32-27.36,2.48,7.8,2.97,15.6,5.45,23.4,8.76-4.26,13.72-15.13,11.19-24.54-.86-3.19-2.46-6.21-2.65-9.51s1.77-7.1,5.06-7.35c-2.55,9.22,2.28,18.64,6.09,27.4,3.82,8.77,6.47,19.76,.51,27.24,10.89-2.7,18.51-14.8,16.24-25.79-1.33-6.42-4.3-15.38,1.81-17.74-2.13,17.29,18.96,33.99,10.88,49.42,8.68-.3,14.48-9.39,16.08-17.92s.67-17.56,3.59-25.73c5.8,10.34,9.05,22.09,9.4,33.94,.05,1.7,.09,3.54,1.15,4.87,2.89,3.63,8.73-.66,10.01-5.12,2.65-9.24,.25-22.19,9.1-25.94,1.93,10.37,1.48,21.18-1.3,31.36,6.96,5.96,18.05-2.86,18.58-12.01s-4.72-17.49-7.31-26.28c-2.58-8.79-.92-20.66,7.77-23.55-5,8.54,1.07,19.05,6.7,27.18s11.01,19.32,5.03,27.2c12.08-7.8,17.19-24.82,11.39-37.99l7.2,16.58c5.27-5.67,10.82-14.02,6.44-20.4,7.37,7.49,5.6,22.44,5.25,30.06-.41,9.09,6.62,24.31,6.62,33.92" />
                    <path class="cls-8" d="M1256.62,227.38s7.38-21.46,6.82-30.24c-.56-8.78-4.32-21.6,2.32-27.36,2.48,7.8,2.97,15.6,5.45,23.4,8.76-4.26,13.72-15.13,11.19-24.54-.86-3.19-2.46-6.21-2.65-9.51s1.77-7.1,5.06-7.35c-2.55,9.22,2.28,18.64,6.09,27.4,3.82,8.77,6.47,19.76,.51,27.24,10.89-2.7,18.51-14.8,16.24-25.79-1.33-6.42-4.3-15.38,1.81-17.74-2.13,17.29,18.96,33.99,10.88,49.42,8.68-.3,14.48-9.39,16.08-17.92s.67-17.56,3.59-25.73c5.8,10.34,9.05,22.09,9.4,33.94,.05,1.7,.09,3.54,1.15,4.87,2.89,3.63,8.73-.66,10.01-5.12,2.65-9.24,.25-22.19,9.1-25.94,1.93,10.37,1.48,21.18-1.3,31.36,6.96,5.96,18.05-2.86,18.58-12.01s-4.72-17.49-7.31-26.28c-2.58-8.79-.92-20.66,7.77-23.55-5,8.54,1.07,19.05,6.7,27.18s11.01,19.32,5.03,27.2c12.08-7.8,17.19-24.82,11.39-37.99l7.2,16.58c5.27-5.67,10.82-14.02,6.44-20.4,7.37,7.49,5.6,22.44,5.25,30.06-.41,9.09,6.62,24.31,6.62,33.92" />
                    <path class="cls-25" d="M1436.05,227.38s7.38-21.46,6.82-30.24c-.56-8.78-4.32-21.6,2.32-27.36,2.48,7.8,2.97,15.6,5.45,23.4,8.76-4.26,13.72-15.13,11.19-24.54-.86-3.19-2.46-6.21-2.65-9.51s1.77-7.1,5.06-7.35c-2.55,9.22,2.28,18.64,6.09,27.4,3.82,8.77,6.47,19.76,.51,27.24,10.89-2.7,18.51-14.8,16.24-25.79-1.33-6.42-4.3-15.38,1.81-17.74-2.13,17.29,18.96,33.99,10.88,49.42,8.68-.3,14.48-9.39,16.08-17.92s.67-17.56,3.59-25.73c5.8,10.34,9.05,22.09,9.4,33.94,.05,1.7,.09,3.54,1.15,4.87,2.89,3.63,8.73-.66,10.01-5.12,2.65-9.24,.25-22.19,9.1-25.94,1.93,10.37,1.48,21.18-1.3,31.36,6.96,5.96,18.05-2.86,18.58-12.01s-4.72-17.49-7.31-26.28c-2.58-8.79-.92-20.66,7.77-23.55-5,8.54,1.07,19.05,6.7,27.18s11.01,19.32,5.03,27.2c12.08-7.8,17.19-24.82,11.39-37.99l7.2,16.58c5.27-5.67,10.82-14.02,6.44-20.4,7.37,7.49,5.6,22.44,5.25,30.06-.41,9.09,6.62,24.31,6.62,33.92" />
                    <path class="cls-26" d="M1615.47,227.38s7.38-21.46,6.82-30.24c-.56-8.78-4.32-21.6,2.32-27.36,2.48,7.8,2.97,15.6,5.45,23.4,8.76-4.26,13.72-15.13,11.19-24.54-.86-3.19-2.46-6.21-2.65-9.51s1.77-7.1,5.06-7.35c-2.55,9.22,2.28,18.64,6.09,27.4,3.82,8.77,6.47,19.76,.51,27.24,10.89-2.7,18.51-14.8,16.24-25.79-1.33-6.42-4.3-15.38,1.81-17.74-2.13,17.29,18.96,33.99,10.88,49.42,8.68-.3,14.48-9.39,16.08-17.92s.67-17.56,3.59-25.73c5.8,10.34,9.05,22.09,9.4,33.94,.05,1.7,.09,3.54,1.15,4.87,2.89,3.63,8.73-.66,10.01-5.12,2.65-9.24,.25-22.19,9.1-25.94,1.93,10.37,1.48,21.18-1.3,31.36,6.96,5.96,18.05-2.86,18.58-12.01s-4.72-17.49-7.31-26.28c-2.58-8.79-.92-20.66,7.77-23.55-5,8.54,1.07,19.05,6.7,27.18s11.01,19.32,5.03,27.2c12.08-7.8,17.19-24.82,11.39-37.99l7.2,16.58c5.27-5.67,10.82-14.02,6.44-20.4,7.37,7.49,5.6,22.44,5.25,30.06-.41,9.09,6.62,24.31,6.62,33.92" />
                    <path class="cls-24" d="M1794.89,227.38s7.38-21.46,6.82-30.24c-.56-8.78-4.32-21.6,2.32-27.36,2.48,7.8,2.97,15.6,5.45,23.4,8.76-4.26,13.72-15.13,11.19-24.54-.86-3.19-2.46-6.21-2.65-9.51s1.77-7.1,5.06-7.35c-2.55,9.22,2.28,18.64,6.09,27.4,3.82,8.77,6.47,19.76,.51,27.24,10.89-2.7,18.51-14.8,16.24-25.79-1.33-6.42-4.3-15.38,1.81-17.74-2.13,17.29,18.96,33.99,10.88,49.42,8.68-.3,14.48-9.39,16.08-17.92s.67-17.56,3.59-25.73c5.8,10.34,9.05,22.09,9.4,33.94,.05,1.7,.09,3.54,1.15,4.87,2.89,3.63,8.73-.66,10.01-5.12,2.65-9.24,.25-22.19,9.1-25.94,1.93,10.37,1.48,21.18-1.3,31.36,6.96,5.96,18.05-2.86,18.58-12.01s-4.72-17.49-7.31-26.28c-2.58-8.79-.92-20.66,7.77-23.55-5,8.54,1.07,19.05,6.7,27.18s11.01,19.32,5.03,27.2c12.08-7.8,17.19-24.82,11.39-37.99l7.2,16.58c5.27-5.67,10.82-14.02,6.44-20.4,7.37,7.49,5.6,22.44,5.25,30.06-.41,9.09,6.62,24.31,6.62,33.92" />
                </g>
            </g>
            <path class="cls-23" d="M0,207.1s49.5-37.09,64.42-47.25c20.54-13.97,50.81-50.66,72.6-78.52,12.75-16.31,15.89-46.22,26.74-56.69,3.58-3.45,7.22-6.95,11.42-9.03,8.9-4.41,18.87-1.92,28.33-.14,33.31,6.27,67.76,2.79,99.84-10.07,5.3-2.13,10.77-4.54,16.3-3.71,6.67,1,12.27,6.51,17.65,11.56,17.7,16.63,24.97,49.49,34.5,64.95,15.53,25.21,14.06,18.92,43.41,40.87,10.57,7.9,38.73,24.23,51.06,27.92,18.76,5.61,72.13,43.18,72.13,43.18v102.83H.42l-.42-85.9Z" />
            <path class="cls-15" d="M.42,293s42.07-57.68,57-67.83c20.54-13.97,49.46-68.2,72.3-90.23,14.44-13.93,.16,128.42,11.02,117.95,3.58-3.45,41.23-118.73,45.43-120.81,8.9-4.41-10.79,139.94,31.35,128.11,27.85-7.81,17.89-132.65,25.84-135.46,8.82-3.12,14.76,130.77,42.3,128.16,26.05-2.47,15.8-123.55,27.65-126.59s22.99,120.2,52.48,111.98c26.3-7.33,3.07-132.37,32.43-110.42,10.57,7.9,39.7,107.2,52.04,110.9,18.76,5.61,88.15,54.24,88.15,54.24H.42Z" />
            <path class="cls-19" d="M244.25,17.1c-13.06-.01-25.92-1.53-38.77-4.42-12.86-2.89-27.14-3.75-37.92,5.5-10.91,9.37-15.35,26.44-21.33,41.24-7.06,17.46-17.11,33-29.27,45.24-2.32,2.34-4.85,4.8-5.71,8.37s1.13,8.37,4.08,7.96c1.14-.16,2.13-1.03,3.05-1.89,8.21-7.71,15.4-17.12,21.19-27.73,3.1-5.69,6.12-12.06,11.16-14.8,1.26-.69,2.72-1.11,4.01-.49,2.58,1.23,2.97,5.63,2.5,9.05-1.09,7.84-4.39,14.89-6.44,22.43-2.05,7.53-2.66,16.54,1.18,22.87l24.17-53.95c1.89-4.22,3.88-8.59,7.03-11.39,3.14-2.81,7.79-3.58,10.74-.46,2.25,2.39,2.96,6.31,3.36,9.97,1.78,16.12,.21,33.17,5.33,48.12,1.01,2.95,3.57,6.24,5.68,4.42,.8-.69,1.17-1.92,1.44-3.09,3.53-15.06-.99-32.6,5.28-46.18,1.44-3.12,3.56-5.98,6.32-6.97,6.79-2.43,12.31,6.83,15.53,14.73l8.52,20.86c3.33,8.16,7.5,17.17,14.61,19.24,8.9,2.59,16.86-7.02,22.59-15.97,3.23-5.04,8.97-10.56,12.78-6.2,1.03,1.18,1.9,3.07,3.28,2.91,1.13-.13,1.8-1.6,2.23-2.91,3.34-10.25,3.24-22.21,8.08-31.46,2.31-4.41,7.8-7.79,10.33-3.58,.89,1.48,1.04,3.44,1.21,5.29,1.1,11.92,4.58,23.49,10.05,33.33,2.76,4.97,6.63,9.87,11.45,9.92,7.33,.07,11.54-10.79,11.89-19.99s-1.16-19.08,2.34-27.17c4.39,.35,5.03,10.91,9.41,10.31,3.29-.45,3.4-6.45,2.39-10.41-4.15-16.33-10.84-31.64-19.57-44.82-5.7-8.61-15.11-20.32-23.67-23.46-14.43-5.3-24.71,4.53-39.11,9.95-11.42,4.3-25.23,5.64-41.42,5.63Z" />
            <path class="cls-21" d="M634.42,205.2c8.98-11.91,13.77-26.91,13.36-41.82-12.37,1.65-24.19,7.13-33.45,15.49l6.71-11c-3.54-1.61-7.34-2.65-11.21-3.07,7.36-2.96,15.7-.68,23.6-1.34,5.15-.43,10.09-2.12,14.98-3.79,.42-5.52-.33-11.5-3.97-15.67-6.17-7.06-18.43-6.67-23.84-14.23,2.85,.54,5.57,1.73,7.92,3.44-1.24-5.24-1.34-10.74-.3-16.02,2.47,5.47,1.27,12.81,5.84,16.71,3.38,2.88,8.95,2.78,11.45,6.45,3.82-11.69,.88-24.4-2.08-36.34-1.13-4.54-2.74-9.69-7.04-11.54,4.34,1.22,8.05,4.49,9.81,8.65,.27-3.98,2.41-7.79,5.67-10.09,2.82,10.91-5.12,22.57-1.97,33.39,1.74-4.34,4.32-8.34,7.56-11.72,.2,2.47-.6,5-2.16,6.92,.67-1.72,2.68-2.8,4.48-2.4-4.8,3.57-10.05,7.95-10.29,13.92-.2,5.08,3.42,10.01,2.18,14.94,6.88-8.9,12.37-18.86,16.13-29.46,.24,2.26-.01,4.58-.73,6.74,1.36-2.53,3.64-4.57,6.31-5.63-5.26,10.18-11.33,19.95-18.13,29.18,3.61-1.88,7.72-2.81,11.79-2.67,2.62,.09,5.24,.62,7.85,.41,4.61-.37,8.71-2.96,12.6-5.47-.43,4.61-5.21,7.44-9.6,8.91-6.01,2-12.38,2.9-18.71,2.62-.9-.04-1.98,0-2.43,.77-.35,.61-.11,1.38,.16,2.03,.94,2.27,2.14,4.47,2.56,6.89,1.26,7.23-4.66,14.49-2.76,21.59,3.67-2.01,6.97-4.71,9.65-7.93,.57,2.49-.2,5.24-1.97,7.08l3.8-.43c.28,3.57-3.91,5.7-7.44,6.34-1.54,.28-3.3,.61-4.08,1.96-.47,.82-.45,1.82-.36,2.75,.38,4.08,1.74,8.06,3.94,11.51" />
            <path class="cls-22" d="M868.18,225.93c-7.17-9.52-11-21.5-10.68-33.41,9.88,1.31,19.33,5.69,26.72,12.38l-5.36-8.79c2.83-1.28,5.87-2.12,8.95-2.45-5.88-2.37-12.54-.55-18.86-1.07-4.11-.34-8.06-1.69-11.97-3.03-.33-4.41,.26-9.19,3.17-12.52,4.93-5.64,14.72-5.33,19.05-11.37-2.28,.43-4.45,1.38-6.33,2.75,.99-4.18,1.07-8.58,.24-12.8-1.97,4.37-1.02,10.24-4.67,13.35-2.7,2.3-7.15,2.22-9.15,5.15-3.06-9.34-.7-19.49,1.66-29.03,.9-3.63,2.19-7.74,5.63-9.22-3.47,.98-6.43,3.59-7.84,6.91-.22-3.18-1.93-6.22-4.53-8.06-2.25,8.72,4.09,18.03,1.57,26.67-1.39-3.47-3.45-6.66-6.04-9.36-.16,1.97,.48,3.99,1.73,5.52-.53-1.37-2.14-2.23-3.58-1.92,3.83,2.85,8.03,6.35,8.22,11.12,.16,4.06-2.73,8-1.74,11.94-5.5-7.11-9.89-15.07-12.89-23.54-.19,1.81,.01,3.66,.58,5.38-1.09-2.02-2.91-3.65-5.04-4.5,4.21,8.14,9.05,15.94,14.49,23.31-2.89-1.5-6.17-2.24-9.42-2.13-2.1,.07-4.18,.49-6.27,.33-3.69-.29-6.96-2.36-10.07-4.37,.35,3.68,4.16,5.95,7.67,7.12,4.8,1.6,9.89,2.31,14.95,2.09,.72-.03,1.58,0,1.94,.62,.28,.49,.09,1.1-.13,1.62-.75,1.81-1.71,3.57-2.05,5.5-1.01,5.78,3.72,11.58,2.21,17.25-2.94-1.6-5.57-3.77-7.71-6.33-.46,1.99,.16,4.19,1.57,5.65l-3.04-.34c-.22,2.85,3.12,4.55,5.94,5.06,1.23,.22,2.64,.48,3.26,1.57,.38,.65,.36,1.45,.29,2.2-.3,3.26-1.39,6.44-3.15,9.19" />
            <path class="cls-16" d="M1077.39,205.2c7.17-11.42,11-25.8,10.68-40.1-9.88,1.58-19.33,6.83-26.72,14.86l5.36-10.54c-2.83-1.54-5.87-2.54-8.95-2.94,5.88-2.84,12.54-.65,18.86-1.29,4.11-.41,8.06-2.03,11.97-3.63,.33-5.29-.26-11.03-3.17-15.02-4.93-6.77-14.72-6.4-19.05-13.64,2.28,.52,4.45,1.66,6.33,3.29-.99-5.02-1.07-10.3-.24-15.36,1.97,5.25,1.02,12.28,4.67,16.02,2.7,2.76,7.15,2.67,9.15,6.18,3.06-11.21,.7-23.39-1.66-34.84-.9-4.36-2.19-9.29-5.63-11.07,3.47,1.17,6.43,4.31,7.84,8.29,.22-3.81,1.93-7.47,4.53-9.67,2.25,10.46-4.09,21.64-1.57,32.01,1.39-4.16,3.45-8,6.04-11.23,.16,2.37-.48,4.79-1.73,6.63,.53-1.65,2.14-2.68,3.58-2.3-3.83,3.42-8.03,7.62-8.22,13.35-.16,4.87,2.73,9.6,1.74,14.33,5.5-8.53,9.89-18.08,12.89-28.24,.19,2.17-.01,4.39-.58,6.46,1.09-2.43,2.91-4.38,5.04-5.4-4.21,9.76-9.05,19.13-14.49,27.97,2.89-1.8,6.17-2.69,9.42-2.56,2.1,.09,4.18,.59,6.27,.39,3.69-.35,6.96-2.83,10.07-5.24-.35,4.42-4.16,7.14-7.67,8.54-4.8,1.92-9.89,2.78-14.95,2.51-.72-.04-1.58,0-1.94,.74-.28,.59-.09,1.32,.13,1.95,.75,2.18,1.71,4.29,2.05,6.61,1.01,6.94-3.72,13.9-2.21,20.7,2.94-1.93,5.57-4.52,7.71-7.6,.46,2.39-.16,5.03-1.57,6.79l3.04-.41c.22,3.42-3.12,5.46-5.94,6.08-1.23,.27-2.64,.58-3.26,1.88-.38,.78-.36,1.74-.29,2.64,.3,3.91,1.39,7.73,3.15,11.03" />
            <path class="cls-20" d="M1424.18,186.95c-7.17-9.52-11-21.5-10.68-33.41,9.88,1.31,19.33,5.69,26.72,12.38l-5.36-8.79c2.83-1.28,5.87-2.12,8.95-2.45-5.88-2.37-12.54-.55-18.86-1.07-4.11-.34-8.06-1.69-11.97-3.03-.33-4.41,.26-9.19,3.17-12.52,4.93-5.64,14.72-5.33,19.05-11.37-2.28,.43-4.45,1.38-6.33,2.75,.99-4.18,1.07-8.58,.24-12.8-1.97,4.37-1.02,10.24-4.67,13.35-2.7,2.3-7.15,2.22-9.15,5.15-3.06-9.34-.7-19.49,1.66-29.03,.9-3.63,2.19-7.74,5.63-9.22-3.47,.98-6.43,3.59-7.84,6.91-.22-3.18-1.93-6.22-4.53-8.06-2.25,8.72,4.09,18.03,1.57,26.67-1.39-3.47-3.45-6.66-6.04-9.36-.16,1.97,.48,3.99,1.73,5.52-.53-1.37-2.14-2.23-3.58-1.92,3.83,2.85,8.03,6.35,8.22,11.12,.16,4.06-2.73,8-1.74,11.94-5.5-7.11-9.89-15.07-12.89-23.54-.19,1.81,.01,3.66,.58,5.38-1.09-2.02-2.91-3.65-5.04-4.5,4.21,8.14,9.05,15.94,14.49,23.31-2.89-1.5-6.17-2.24-9.42-2.13-2.1,.07-4.18,.49-6.27,.33-3.69-.29-6.96-2.36-10.07-4.37,.35,3.68,4.16,5.95,7.67,7.12,4.8,1.6,9.89,2.31,14.95,2.09,.72-.03,1.58,0,1.94,.62,.28,.49,.09,1.1-.13,1.62-.75,1.81-1.71,3.57-2.05,5.5-1.01,5.78,3.72,11.58,2.21,17.25-2.94-1.6-5.57-3.77-7.71-6.33-.46,1.99,.16,4.19,1.57,5.65l-3.04-.34c-.22,2.85,3.12,4.55,5.94,5.06,1.23,.22,2.64,.48,3.26,1.57,.38,.65,.36,1.45,.29,2.2-.3,3.26-1.39,6.44-3.15,9.19" />
            <path class="cls-17" d="M1716.81,205.2c5.02-6.66,7.7-15.05,7.47-23.39-6.92,.92-13.53,3.99-18.71,8.67l3.76-6.15c-1.98-.9-4.11-1.48-6.27-1.72,4.12-1.66,8.78-.38,13.2-.75,2.88-.24,5.65-1.18,8.38-2.12,.23-3.09-.18-6.43-2.22-8.76-3.45-3.95-10.31-3.73-13.34-7.96,1.59,.3,3.12,.97,4.43,1.92-.69-2.93-.75-6.01-.17-8.96,1.38,3.06,.71,7.17,3.27,9.34,1.89,1.61,5,1.55,6.41,3.61,2.14-6.54,.49-13.64-1.16-20.32-.63-2.54-1.53-5.42-3.94-6.46,2.43,.68,4.5,2.51,5.49,4.84,.15-2.23,1.35-4.36,3.17-5.64,1.58,6.1-2.87,12.62-1.1,18.67,.97-2.43,2.42-4.67,4.23-6.55,.11,1.38-.33,2.8-1.21,3.87,.37-.96,1.5-1.56,2.51-1.34-2.68,1.99-5.62,4.44-5.75,7.79-.11,2.84,1.91,5.6,1.22,8.36,3.85-4.98,6.92-10.55,9.02-16.48,.13,1.27,0,2.56-.41,3.77,.76-1.42,2.03-2.55,3.53-3.15-2.94,5.7-6.34,11.16-10.14,16.32,2.02-1.05,4.32-1.57,6.59-1.49,1.47,.05,2.93,.35,4.39,.23,2.58-.21,4.87-1.65,7.05-3.06-.24,2.58-2.91,4.16-5.37,4.98-3.36,1.12-6.93,1.62-10.47,1.46-.5-.02-1.11,0-1.36,.43-.2,.34-.06,.77,.09,1.14,.52,1.27,1.2,2.5,1.43,3.85,.71,4.05-2.61,8.11-1.55,12.08,2.05-1.12,3.9-2.64,5.4-4.43,.32,1.39-.11,2.93-1.1,3.96l2.13-.24c.15,2-2.19,3.19-4.16,3.55-.86,.16-1.85,.34-2.28,1.1-.26,.46-.25,1.02-.2,1.54,.21,2.28,.97,4.51,2.21,6.44" />
            <path class="cls-5" d="M705.36,199.67c-1.53-1.01-3.71-1.98-5.01-.68-.82,.82-.75,2.29,.03,3.14s2.1,1.1,3.2,.75c-1.83-.35-3.79,1.11-3.98,2.96-.06,.61,.06,1.27,.48,1.71,.36,.38,.89,.56,1.41,.62,2.08,.23,4.16-1.55,4.25-3.64l22.16,3.05c-.92,1.34-.32,3.46,1.17,4.12s3.46-.31,3.84-1.89-.93-3.34-2.56-3.43c1.22-.17,2.19-1.41,2.07-2.63s-1.32-2.25-2.55-2.17c-1.18,.07-2.15,.99-2.7,2.03-.21,.39-.4,.83-.81,1.01-.3,.13-.64,.07-.95,.01-7.14-1.28-14.84-1.51-20.07-4.96Z" />
            <path class="cls-5" d="M760.48,201.63c-.57-2.16-2.46-3.8-4.57-4.56-2.11-.76-4.41-.76-6.64-.58-1.88,.15-3.82,.45-5.41,1.46-1.59,1.01-2.53,2.87-2.42,4.75,.23,4.07,3.58,5.13,3.58,5.13,0,0,1.39,4.61,2.08,6.41,.63-1.81,1.26-3.61,1.89-5.42,.45,1.9,1.38,3.69,2.7,5.14,.77-1.71,1.68-3.36,2.73-4.91,.26,1.79,.99,3.51,2.08,4.94,.22-2.03,.43-4.07,.65-6.1,.02-.17,.04-.35,.15-.49,.13-.16,.53-.28,.53-.28,0,0,3.22-3.32,2.65-5.49Zm-11.23,.84c-.06,.67-.25,1.43-.84,1.75-.25,.14-.55,.17-.84,.14-.86-.12-1.55-.96-1.49-1.82,.06-.86,.85-1.61,1.72-1.61,.09-.03,.65-.19,1.07,.13,.4,.31,.43,.91,.38,1.41Zm5.91,1.38c-.22,.26-.51,.47-.85,.52-.45,.07-.91-.15-1.24-.46-.33-.32-.55-.73-.76-1.13,.28-.44,.57-.87,.85-1.31,0,0,0-.02,.05-.07l-.05,.07s.49-.3,.98-.31c.6,0,1.17,.43,1.36,1,.19,.57,.04,1.23-.35,1.69Z" />
            <path class="cls-4" d="M1717.15,166.02c-.29-2.09,.68-4.31,2.42-5.51,.03-.02,.07-.05,.11-.04,.05,0,.08,.05,.1,.1,.56,1.01,.59,2.3,.08,3.34s-1.56,1.79-2.71,2.12Z" />
            <path class="cls-4" d="M1711.52,164.78c-1.32,.32-2.57,.93-3.62,1.78-.12,.1-.25,.21-.31,.36-.08,.22,.01,.47,.14,.67,.32,.51,.89,.89,1.49,.88,.59-.02,1.1-.38,1.53-.78,.95-.87,1.7-1.96,.77-2.9Z" />
            <path class="cls-4" d="M1725.41,148.2c1-.93,2.13-1.71,3.36-2.3,.69-.33,1.43-.61,2.2-.58,.51,.02,1.01,.17,1.49,.34,.72,.25,1.42,.55,2.1,.89-1.01,1.42-2.61,2.38-4.32,2.73s-3.51,.12-4.83-1.07Z" />
            <path class="cls-4" d="M1730.01,180.04c1.82-1.1,4.18-1.26,6.14-.42,.08,.04,.17,.08,.22,.15,.08,.12,.03,.29-.03,.43-.33,.71-.99,1.23-1.7,1.54s-1.49,.46-2.27,.57c-.94,.14-1.89,.25-2.83,.12-.29-.04-.64-.17,.48-2.39Z" />
            <path class="cls-4" d="M1713.48,182.09c-.54-.19-.97-.62-1.27-1.11s-.48-1.04-.66-1.58l-.76-2.31c1.13-.08,2.29,.43,3.01,1.31s.98,2.11,.69,3.21c-.06,.22-.14,.46-1.01,.49Z" />
            <path class="cls-4" d="M1418.73,152.76c.97-1.17,2.01-2.28,3.12-3.32,.64-.6,1.39-1.22,2.27-1.21,.35,1.22-.24,2.56-1.17,3.43s-2.13,1.38-4.23,1.1Z" />
            <path class="cls-4" d="M1397.85,139.2c-1.28-.54-2.64-1.15-3.33-2.35-.78-1.35-.48-3.08,.21-4.48,.07-.15,.16-.3,.3-.38,.12-.07,.27-.08,.41-.08,1.53,.03,2.7,1.56,2.81,3.08s-.56,2.99-.4,4.21Z" />
        </g>
        <g id="Layer_3">
            <path class="cls-18" d="M0,207.1s185.5-11.58,400.5-19.29c215-7.72,368.88,42.51,506.5,32.75,137.62-9.76,356-57,566-34,199.08,21.8,447,20.54,447,20.54v87.46H0v-87.46Z" />
        </g>
        <path d="M0,260.56s185.5-4.5,400.5-7.5,365.76,22.59,503.38,18.79,390.62-49.79,586.62-33.79,429.5,22.5,429.5,22.5v34H0v-34Z" />
        <text class="cls-6" transform="translate(39.83 259.64) rotate(-1.27)">
            <tspan x="0" y="0">n</tspan>
        </text>
        <text class="cls-6" transform="translate(60.51 259.19) rotate(-1.24)">
            <tspan x="0" y="0">e</tspan>
        </text>
        <text class="cls-6" transform="translate(77.33 258.82) rotate(-1.22)">
            <tspan x="0" y="0">l</tspan>
        </text>
        <text class="cls-6" transform="translate(93.43 258.48) rotate(-1.2)">
            <tspan x="0" y="0"></tspan>
        </text>
        <text class="cls-6" transform="translate(104.87 258.24) rotate(-1.18)">
            <tspan x="0" y="0">m</tspan>
        </text>
        <text class="cls-6" transform="translate(131.08 257.7) rotate(-1.15)">
            <tspan x="0" y="0">e</tspan>
        </text>
        <text class="cls-6" transform="translate(147.9 257.36) rotate(-1.12)">
            <tspan x="0" y="0">z</tspan>
        </text>
        <text class="cls-6" transform="translate(171.09 256.91) rotate(-1.1)">
            <tspan x="0" y="0">z</tspan>
        </text>
        <text class="cls-6" transform="translate(193.73 256.48) rotate(-1.07)">
            <tspan x="0" y="0">o</tspan>
        </text>
        <text class="cls-6" transform="translate(218.14 256.02) rotate(-1.04)">
            <tspan x="0" y="0"></tspan>
        </text>
        <text class="cls-6" transform="translate(229.6 255.81) rotate(-1.02)">
            <tspan x="0" y="0">d</tspan>
        </text>
        <text class="cls-6" transform="translate(252.03 255.41) rotate(-1)">
            <tspan x="0" y="0">e</tspan>
        </text>
        <text class="cls-6" transform="translate(268.84 255.12) rotate(-.98)">
            <tspan x="0" y="0">l</tspan>
        </text>
        <text class="cls-6" transform="translate(284.96 254.85) rotate(-.96)">
            <tspan x="0" y="0"></tspan>
        </text>
        <text class="cls-6" transform="translate(296.42 254.65) rotate(-.94)">
            <tspan x="0" y="0">c</tspan>
        </text>
        <text class="cls-6" transform="translate(313.64 254.37) rotate(-.91)">
            <tspan x="0" y="0">a</tspan>
        </text>
        <text class="cls-6" transform="translate(338.51 253.98) rotate(-.87)">
            <tspan x="0" y="0">m</tspan>
        </text>
        <text class="cls-6" transform="translate(364.69 253.58) rotate(-.83)">
            <tspan x="0" y="0">m</tspan>
        </text>
        <text class="cls-6" transform="translate(390.89 253.2) rotate(-.81)">
            <tspan x="0" y="0">i</tspan>
        </text>
        <text class="cls-6" transform="translate(402.13 253.02) rotate(-.53)">
            <tspan x="0" y="0">n</tspan>
        </text>
        <text class="cls-6" transform="translate(422.79 252.84) rotate(-.16)">
            <tspan x="0" y="0"></tspan>
        </text>
        <text class="cls-6" transform="translate(434.18 252.79) rotate(.21)">
            <tspan x="0" y="0">d</tspan>
        </text>
        <text class="cls-6" transform="translate(456.59 252.9) rotate(.59)">
            <tspan x="0" y="0">i</tspan>
        </text>
        <text class="cls-6" transform="translate(467.84 253.01) rotate(.83)">
            <tspan x="0" y="0"></tspan>
        </text>
        <text class="cls-6" transform="translate(479.25 253.16) rotate(1.17)">
            <tspan x="0" y="0">n</tspan>
        </text>
        <text class="cls-6" transform="translate(499.9 253.58) rotate(1.63)">
            <tspan x="0" y="0">o</tspan>
        </text>
        <text class="cls-6" transform="translate(524.24 254.28) rotate(2.07)">
            <tspan x="0" y="0">s</tspan>
        </text>
        <text class="cls-6" transform="translate(544.8 255.02) rotate(2.43)">
            <tspan x="0" y="0">t</tspan>
        </text>
        <text class="cls-6" transform="translate(563.91 255.83) rotate(2.77)">
            <tspan x="0" y="0">r</tspan>
        </text>
        <text class="cls-6" transform="translate(586.01 256.9) rotate(3.13)">
            <tspan x="0" y="0">a</tspan>
        </text>
        <text class="cls-6" transform="translate(610.86 258.27) rotate(3.37)">
            <tspan x="0" y="0"></tspan>
        </text>
        <text class="cls-6" transform="translate(622.24 258.93) rotate(3.57)">
            <tspan x="0" y="0">v</tspan>
        </text>
        <text class="cls-6" transform="translate(647.32 260.51) rotate(3.73)">
            <tspan x="0" y="0">i</tspan>
        </text>
        <text class="cls-6" transform="translate(658.56 261.23) rotate(3.83)">
            <tspan x="0" y="0">t</tspan>
        </text>
        <text class="cls-6" transform="translate(673.72 262.25) rotate(3.9)">
            <tspan x="0" y="0">a</tspan>
        </text>
        <text class="cls-6" transform="translate(698.57 263.94) rotate(3.91)">
            <tspan x="0" y="0"></tspan>
        </text>
        <text class="cls-6" transform="translate(709.97 264.73) rotate(3.85)">
            <tspan x="0" y="0">m</tspan>
        </text>
        <text class="cls-6" transform="translate(736.1 266.48) rotate(3.72)">
            <tspan x="0" y="0">i</tspan>
        </text>
        <text class="cls-6" transform="translate(747.33 267.21) rotate(3.61)">
            <tspan x="0" y="0"></tspan>
        </text>
        <text class="cls-6" transform="translate(758.73 267.94) rotate(3.38)">
            <tspan x="0" y="0">r</tspan>
        </text>
        <text class="cls-6" transform="translate(780.17 269.19) rotate(3.08)">
            <tspan x="0" y="0">i</tspan>
        </text>
        <text class="cls-6" transform="translate(791.39 269.81) rotate(2.74)">
            <tspan x="0" y="0">t</tspan>
        </text>
        <text class="cls-6" transform="translate(810.49 270.74) rotate(2.17)">
            <tspan x="0" y="0">r</tspan>
        </text>
        <text class="cls-6" transform="translate(831.53 271.55) rotate(1.38)">
            <tspan x="0" y="0">o</tspan>
        </text>
        <text class="cls-6" transform="translate(855.08 272.14) rotate(.36)">
            <tspan x="0" y="0">v</tspan>
        </text>
        <text class="cls-6" transform="translate(875.48 272.31) rotate(-.67)">
            <tspan x="0" y="0">a</tspan>
        </text>
        <text class="cls-6" transform="translate(900.47 271.98) rotate(-1.89)">
            <tspan x="0" y="0">i</tspan>
        </text>
        <text class="cls-6" transform="translate(911.67 271.62) rotate(-2.52)">
            <tspan x="0" y="0"></tspan>
        </text>
        <text class="cls-6" transform="translate(923 271.15) rotate(-3.4)">
            <tspan x="0" y="0">p</tspan>
        </text>
        <text class="cls-6" transform="translate(944.15 269.87) rotate(-4.18)">
            <tspan x="0" y="0">e</tspan>
        </text>
        <text class="cls-6" transform="translate(960.84 268.66) rotate(-4.75)">
            <tspan x="0" y="0">r</tspan>
        </text>
        <text class="cls-6" transform="translate(982.23 266.87) rotate(-5.13)">
            <tspan x="0" y="0"></tspan>
        </text>
        <text class="cls-6" transform="translate(993.6 265.86) rotate(-5.42)">
            <tspan x="0" y="0">u</tspan>
        </text>
        <text class="cls-6" transform="translate(1015.13 263.81) rotate(-5.68)">
            <tspan x="0" y="0">n</tspan>
        </text>
        <text class="cls-6" transform="translate(1035.72 261.76) rotate(-5.86)">
            <tspan x="0" y="0">a</tspan>
        </text>
        <text class="cls-6" transform="translate(1060.48 259.21) rotate(-5.93)">
            <tspan x="0" y="0"></tspan>
        </text>
        <text class="cls-6" transform="translate(1071.87 258.03) rotate(-5.95)">
            <tspan x="0" y="0">s</tspan>
        </text>
        <text class="cls-6" transform="translate(1092.34 255.9) rotate(-5.93)">
            <tspan x="0" y="0">e</tspan>
        </text>
        <text class="cls-6" transform="translate(1109.08 254.16) rotate(-5.88)">
            <tspan x="0" y="0">l</tspan>
        </text>
        <text class="cls-6" transform="translate(1120.41 252.98) rotate(-5.79)">
            <tspan x="0" y="0">v</tspan>
        </text>
        <text class="cls-6" transform="translate(1140.81 250.9) rotate(-5.64)">
            <tspan x="0" y="0">a</tspan>
        </text>
        <text class="cls-6" transform="translate(1165.57 248.47) rotate(-5.47)">
            <tspan x="0" y="0"></tspan>
        </text>
        <text class="cls-6" transform="translate(1176.92 247.37) rotate(-5.27)">
            <tspan x="0" y="0">o</tspan>
        </text>
        <text class="cls-6" transform="translate(1201.19 245.13) rotate(-4.97)">
            <tspan x="0" y="0">s</tspan>
        </text>
        <text class="cls-6" transform="translate(1221.68 243.35) rotate(-4.67)">
            <tspan x="0" y="0">c</tspan>
        </text>
        <text class="cls-6" transform="translate(1238.82 241.95) rotate(-4.33)">
            <tspan x="0" y="0">u</tspan>
        </text>
        <text class="cls-6" transform="translate(1260.38 240.31) rotate(-3.9)">
            <tspan x="0" y="0">r</tspan>
        </text>
        <text class="cls-6" transform="translate(1282.43 238.8) rotate(-3.36)">
            <tspan x="0" y="0">a</tspan>
        </text>
        <text class="cls-6" transform="translate(1307.25 237.37) rotate(-2.9)">
            <tspan x="0" y="0"></tspan>
        </text>
        <text class="cls-6" transform="translate(1318.6 236.78) rotate(-2.51)">
            <tspan x="0" y="0">c</tspan>
        </text>
        <text class="cls-6" transform="translate(1336.09 236) rotate(-1.91)">
            <tspan x="0" y="0">h</tspan>
        </text>
        <text class="cls-6" transform="translate(1358.98 235.25) rotate(-1.25)">
            <tspan x="0" y="0">e</tspan>
        </text>
        <text class="cls-6" transform="translate(1375.76 234.9) rotate(-.75)">
            <tspan x="0" y="0"></tspan>
        </text>
        <text class="cls-6" transform="translate(1387.12 234.74) rotate(-.22)">
            <tspan x="0" y="0">l</tspan>
        </text>
        <text class="cls-6" transform="translate(1403.15 234.64) rotate(.63)">
            <tspan x="0" y="0">a</tspan>
        </text>
        <text class="cls-6" transform="translate(1427.94 234.96) rotate(1.46)">
            <tspan x="0" y="0"></tspan>
        </text>
        <text class="cls-6" transform="translate(1439.28 235.2) rotate(2.31)">
            <tspan x="0" y="0">d</tspan>
        </text>
        <text class="cls-6" transform="translate(1461.59 236.14) rotate(3.23)">
            <tspan x="0" y="0">i</tspan>
        </text>
        <text class="cls-6" transform="translate(1472.74 236.73) rotate(4.21)">
            <tspan x="0" y="0">r</tspan>
        </text>
        <text class="cls-6" transform="translate(1494.13 238.36) rotate(4.55)">
            <tspan x="0" y="0">i</tspan>
        </text>
        <text class="cls-6" transform="translate(1505.35 239.26) rotate(4.38)">
            <tspan x="0" y="0">t</tspan>
        </text>
        <text class="cls-6" transform="translate(1524.46 240.72) rotate(4.18)">
            <tspan x="0" y="0">t</tspan>
        </text>
        <text class="cls-6" transform="translate(1539.62 241.84) rotate(4.01)">
            <tspan x="0" y="0">a</tspan>
        </text>
        <text class="cls-6" transform="translate(1564.42 243.57) rotate(3.85)">
            <tspan x="0" y="0"></tspan>
        </text>
        <text class="cls-6" transform="translate(1575.82 244.35) rotate(3.69)">
            <tspan x="0" y="0">v</tspan>
        </text>
        <text class="cls-6" transform="translate(1600.88 245.95) rotate(3.55)">
            <tspan x="0" y="0">i</tspan>
        </text>
        <text class="cls-6" transform="translate(1612.13 246.66) rotate(3.42)">
            <tspan x="0" y="0">a</tspan>
        </text>
        <text class="cls-6" transform="translate(1636.97 248.14) rotate(3.29)">
            <tspan x="0" y="0"></tspan>
        </text>
        <text class="cls-6" transform="translate(1648.38 248.8) rotate(3.2)">
            <tspan x="0" y="0">e</tspan>
        </text>
        <text class="cls-6" transform="translate(1665.17 249.74) rotate(3.08)">
            <tspan x="0" y="0">r</tspan>
        </text>
        <text class="cls-6" transform="translate(1687.3 250.93) rotate(2.94)">
            <tspan x="0" y="0">a</tspan>
        </text>
        <text class="cls-6" transform="translate(1712.14 252.19) rotate(2.83)">
            <tspan x="0" y="0"></tspan>
        </text>
        <text class="cls-6" transform="translate(1723.56 252.76) rotate(2.74)">
            <tspan x="0" y="0">s</tspan>
        </text>
        <text class="cls-6" transform="translate(1744.13 253.75) rotate(2.62)">
            <tspan x="0" y="0">m</tspan>
        </text>
        <text class="cls-6" transform="translate(1769.94 254.93) rotate(2.49)">
            <tspan x="0" y="0">a</tspan>
        </text>
        <text class="cls-6" transform="translate(1794.79 256.01) rotate(2.37)">
            <tspan x="0" y="0">r</tspan>
        </text>
        <text class="cls-6" transform="translate(1816.24 256.89) rotate(2.26)">
            <tspan x="0" y="0">r</tspan>
        </text>
        <text class="cls-6" transform="translate(1837.73 257.74) rotate(2.17)">
            <tspan x="0" y="0">i</tspan>
        </text>
        <text class="cls-6" transform="translate(1849 258.17) rotate(2.09)">
            <tspan x="0" y="0">t</tspan>
        </text>
        <text class="cls-6" transform="translate(1864.21 258.73) rotate(1.99)">
            <tspan x="0" y="0">a</tspan>
        </text>
    </g>
</svg>