<?xml version="1.0" encoding="UTF-8"?><svg id="Layer_2" xmlns="http://www.w3.org/2000/svg" xmlns:xlink="http://www.w3.org/1999/xlink" viewBox="0 0 1920 114.24"><defs><style>.cls-1{fill:url(#linear-gradient);}.cls-2{fill:#2b2b2b;font-family:Nove, Nove;font-size:36px;}</style><linearGradient id="linear-gradient" x1="0" y1="57.12" x2="1920" y2="57.12" gradientTransform="matrix(1, 0, 0, 1, 0, 0)" gradientUnits="userSpaceOnUse"><stop offset="0" stop-color="#00a99d"/><stop offset=".05" stop-color="#08ada6"/><stop offset=".14" stop-color="#1ebabf"/><stop offset=".25" stop-color="#41cfe8"/><stop offset=".3" stop-color="#55dbff"/><stop offset=".75" stop-color="#bff6ff"/><stop offset=".99" stop-color="#fff"/></linearGradient></defs><g id="Paradise"><path class="cls-1" d="M0,26.78S185.5,15.21,400.5,7.49C615.5-.23,769.38,50,907,40.24c137.62-9.76,356-57,566-34,199.08,21.8,447,20.54,447,20.54V114.24H0V26.78Z"/><path d="M0,80.24s185.5-4.5,400.5-7.5,365.76,22.59,503.38,18.79,390.62-49.79,586.62-33.79,429.5,22.5,429.5,22.5v34H0v-34Z"/><text class="cls-2" transform="translate(39.83 79.32) rotate(-1.27)"><tspan x="0" y="0">n</tspan></text><text class="cls-2" transform="translate(60.51 78.87) rotate(-1.24)"><tspan x="0" y="0">e</tspan></text><text class="cls-2" transform="translate(77.33 78.5) rotate(-1.22)"><tspan x="0" y="0">l</tspan></text><text class="cls-2" transform="translate(93.43 78.16) rotate(-1.2)"><tspan x="0" y="0"> </tspan></text><text class="cls-2" transform="translate(104.87 77.92) rotate(-1.18)"><tspan x="0" y="0">m</tspan></text><text class="cls-2" transform="translate(131.08 77.38) rotate(-1.15)"><tspan x="0" y="0">e</tspan></text><text class="cls-2" transform="translate(147.9 77.05) rotate(-1.12)"><tspan x="0" y="0">z</tspan></text><text class="cls-2" transform="translate(171.09 76.59) rotate(-1.1)"><tspan x="0" y="0">z</tspan></text><text class="cls-2" transform="translate(193.73 76.16) rotate(-1.07)"><tspan x="0" y="0">o</tspan></text><text class="cls-2" transform="translate(218.14 75.7) rotate(-1.04)"><tspan x="0" y="0"> </tspan></text><text class="cls-2" transform="translate(229.6 75.49) rotate(-1.02)"><tspan x="0" y="0">d</tspan></text><text class="cls-2" transform="translate(252.03 75.09) rotate(-1)"><tspan x="0" y="0">e</tspan></text><text class="cls-2" transform="translate(268.84 74.8) rotate(-.98)"><tspan x="0" y="0">l</tspan></text><text class="cls-2" transform="translate(284.96 74.53) rotate(-.96)"><tspan x="0" y="0"> </tspan></text><text class="cls-2" transform="translate(296.42 74.33) rotate(-.94)"><tspan x="0" y="0">c</tspan></text><text class="cls-2" transform="translate(313.64 74.05) rotate(-.91)"><tspan x="0" y="0">a</tspan></text><text class="cls-2" transform="translate(338.51 73.66) rotate(-.87)"><tspan x="0" y="0">m</tspan></text><text class="cls-2" transform="translate(364.69 73.26) rotate(-.83)"><tspan x="0" y="0">m</tspan></text><text class="cls-2" transform="translate(390.89 72.88) rotate(-.81)"><tspan x="0" y="0">i</tspan></text><text class="cls-2" transform="translate(402.13 72.7) rotate(-.53)"><tspan x="0" y="0">n</tspan></text><text class="cls-2" transform="translate(422.79 72.52) rotate(-.16)"><tspan x="0" y="0"> </tspan></text><text class="cls-2" transform="translate(434.18 72.47) rotate(.21)"><tspan x="0" y="0">d</tspan></text><text class="cls-2" transform="translate(456.59 72.58) rotate(.59)"><tspan x="0" y="0">i</tspan></text><text class="cls-2" transform="translate(467.84 72.69) rotate(.83)"><tspan x="0" y="0"> </tspan></text><text class="cls-2" transform="translate(479.25 72.84) rotate(1.17)"><tspan x="0" y="0">n</tspan></text><text class="cls-2" transform="translate(499.9 73.26) rotate(1.63)"><tspan x="0" y="0">o</tspan></text><text class="cls-2" transform="translate(524.24 73.96) rotate(2.07)"><tspan x="0" y="0">s</tspan></text><text class="cls-2" transform="translate(544.8 74.7) rotate(2.43)"><tspan x="0" y="0">t</tspan></text><text class="cls-2" transform="translate(563.91 75.51) rotate(2.77)"><tspan x="0" y="0">r</tspan></text><text class="cls-2" transform="translate(586.01 76.58) rotate(3.13)"><tspan x="0" y="0">a</tspan></text><text class="cls-2" transform="translate(610.86 77.95) rotate(3.37)"><tspan x="0" y="0"> </tspan></text><text class="cls-2" transform="translate(622.24 78.61) rotate(3.57)"><tspan x="0" y="0">v</tspan></text><text class="cls-2" transform="translate(647.32 80.19) rotate(3.73)"><tspan x="0" y="0">i</tspan></text><text class="cls-2" transform="translate(658.56 80.92) rotate(3.83)"><tspan x="0" y="0">t</tspan></text><text class="cls-2" transform="translate(673.72 81.93) rotate(3.9)"><tspan x="0" y="0">a</tspan></text><text class="cls-2" transform="translate(698.57 83.62) rotate(3.91)"><tspan x="0" y="0"> </tspan></text><text class="cls-2" transform="translate(709.97 84.41) rotate(3.85)"><tspan x="0" y="0">m</tspan></text><text class="cls-2" transform="translate(736.1 86.16) rotate(3.72)"><tspan x="0" y="0">i</tspan></text><text class="cls-2" transform="translate(747.33 86.89) rotate(3.61)"><tspan x="0" y="0"> </tspan></text><text class="cls-2" transform="translate(758.73 87.62) rotate(3.38)"><tspan x="0" y="0">r</tspan></text><text class="cls-2" transform="translate(780.17 88.88) rotate(3.08)"><tspan x="0" y="0">i</tspan></text><text class="cls-2" transform="translate(791.39 89.49) rotate(2.74)"><tspan x="0" y="0">t</tspan></text><text class="cls-2" transform="translate(810.49 90.42) rotate(2.17)"><tspan x="0" y="0">r</tspan></text><text class="cls-2" transform="translate(831.53 91.23) rotate(1.38)"><tspan x="0" y="0">o</tspan></text><text class="cls-2" transform="translate(855.08 91.82) rotate(.36)"><tspan x="0" y="0">v</tspan></text><text class="cls-2" transform="translate(875.48 91.99) rotate(-.67)"><tspan x="0" y="0">a</tspan></text><text class="cls-2" transform="translate(900.47 91.66) rotate(-1.89)"><tspan x="0" y="0">i</tspan></text><text class="cls-2" transform="translate(911.67 91.3) rotate(-2.52)"><tspan x="0" y="0"> </tspan></text><text class="cls-2" transform="translate(923 90.83) rotate(-3.4)"><tspan x="0" y="0">p</tspan></text><text class="cls-2" transform="translate(944.15 89.55) rotate(-4.18)"><tspan x="0" y="0">e</tspan></text><text class="cls-2" transform="translate(960.84 88.34) rotate(-4.75)"><tspan x="0" y="0">r</tspan></text><text class="cls-2" transform="translate(982.23 86.55) rotate(-5.13)"><tspan x="0" y="0"> </tspan></text><text class="cls-2" transform="translate(993.6 85.54) rotate(-5.42)"><tspan x="0" y="0">u</tspan></text><text class="cls-2" transform="translate(1015.13 83.49) rotate(-5.68)"><tspan x="0" y="0">n</tspan></text><text class="cls-2" transform="translate(1035.72 81.44) rotate(-5.86)"><tspan x="0" y="0">a</tspan></text><text class="cls-2" transform="translate(1060.48 78.89) rotate(-5.93)"><tspan x="0" y="0"> </tspan></text><text class="cls-2" transform="translate(1071.87 77.71) rotate(-5.95)"><tspan x="0" y="0">s</tspan></text><text class="cls-2" transform="translate(1092.34 75.58) rotate(-5.93)"><tspan x="0" y="0">e</tspan></text><text class="cls-2" transform="translate(1109.08 73.84) rotate(-5.88)"><tspan x="0" y="0">l</tspan></text><text class="cls-2" transform="translate(1120.41 72.66) rotate(-5.79)"><tspan x="0" y="0">v</tspan></text><text class="cls-2" transform="translate(1140.81 70.59) rotate(-5.64)"><tspan x="0" y="0">a</tspan></text><text class="cls-2" transform="translate(1165.57 68.15) rotate(-5.47)"><tspan x="0" y="0"> </tspan></text><text class="cls-2" transform="translate(1176.92 67.05) rotate(-5.27)"><tspan x="0" y="0">o</tspan></text><text class="cls-2" transform="translate(1201.19 64.81) rotate(-4.97)"><tspan x="0" y="0">s</tspan></text><text class="cls-2" transform="translate(1221.68 63.03) rotate(-4.67)"><tspan x="0" y="0">c</tspan></text><text class="cls-2" transform="translate(1238.82 61.63) rotate(-4.33)"><tspan x="0" y="0">u</tspan></text><text class="cls-2" transform="translate(1260.38 59.99) rotate(-3.9)"><tspan x="0" y="0">r</tspan></text><text class="cls-2" transform="translate(1282.43 58.48) rotate(-3.36)"><tspan x="0" y="0">a</tspan></text><text class="cls-2" transform="translate(1307.25 57.05) rotate(-2.9)"><tspan x="0" y="0"> </tspan></text><text class="cls-2" transform="translate(1318.6 56.47) rotate(-2.51)"><tspan x="0" y="0">c</tspan></text><text class="cls-2" transform="translate(1336.09 55.68) rotate(-1.91)"><tspan x="0" y="0">h</tspan></text><text class="cls-2" transform="translate(1358.98 54.93) rotate(-1.25)"><tspan x="0" y="0">e</tspan></text><text class="cls-2" transform="translate(1375.76 54.58) rotate(-.75)"><tspan x="0" y="0"> </tspan></text><text class="cls-2" transform="translate(1387.12 54.42) rotate(-.22)"><tspan x="0" y="0">l</tspan></text><text class="cls-2" transform="translate(1403.15 54.32) rotate(.63)"><tspan x="0" y="0">a</tspan></text><text class="cls-2" transform="translate(1427.94 54.64) rotate(1.46)"><tspan x="0" y="0"> </tspan></text><text class="cls-2" transform="translate(1439.28 54.88) rotate(2.31)"><tspan x="0" y="0">d</tspan></text><text class="cls-2" transform="translate(1461.59 55.82) rotate(3.23)"><tspan x="0" y="0">i</tspan></text><text class="cls-2" transform="translate(1472.74 56.41) rotate(4.21)"><tspan x="0" y="0">r</tspan></text><text class="cls-2" transform="translate(1494.13 58.04) rotate(4.55)"><tspan x="0" y="0">i</tspan></text><text class="cls-2" transform="translate(1505.35 58.94) rotate(4.38)"><tspan x="0" y="0">t</tspan></text><text class="cls-2" transform="translate(1524.46 60.4) rotate(4.18)"><tspan x="0" y="0">t</tspan></text><text class="cls-2" transform="translate(1539.62 61.52) rotate(4.01)"><tspan x="0" y="0">a</tspan></text><text class="cls-2" transform="translate(1564.42 63.25) rotate(3.85)"><tspan x="0" y="0"> </tspan></text><text class="cls-2" transform="translate(1575.82 64.03) rotate(3.69)"><tspan x="0" y="0">v</tspan></text><text class="cls-2" transform="translate(1600.88 65.64) rotate(3.55)"><tspan x="0" y="0">i</tspan></text><text class="cls-2" transform="translate(1612.13 66.34) rotate(3.42)"><tspan x="0" y="0">a</tspan></text><text class="cls-2" transform="translate(1636.97 67.82) rotate(3.29)"><tspan x="0" y="0"> </tspan></text><text class="cls-2" transform="translate(1648.38 68.48) rotate(3.2)"><tspan x="0" y="0">e</tspan></text><text class="cls-2" transform="translate(1665.17 69.42) rotate(3.08)"><tspan x="0" y="0">r</tspan></text><text class="cls-2" transform="translate(1687.3 70.61) rotate(2.94)"><tspan x="0" y="0">a</tspan></text><text class="cls-2" transform="translate(1712.14 71.88) rotate(2.83)"><tspan x="0" y="0"> </tspan></text><text class="cls-2" transform="translate(1723.56 72.44) rotate(2.74)"><tspan x="0" y="0">s</tspan></text><text class="cls-2" transform="translate(1744.13 73.43) rotate(2.62)"><tspan x="0" y="0">m</tspan></text><text class="cls-2" transform="translate(1769.94 74.61) rotate(2.49)"><tspan x="0" y="0">a</tspan></text><text class="cls-2" transform="translate(1794.79 75.69) rotate(2.37)"><tspan x="0" y="0">r</tspan></text><text class="cls-2" transform="translate(1816.24 76.57) rotate(2.26)"><tspan x="0" y="0">r</tspan></text><text class="cls-2" transform="translate(1837.73 77.42) rotate(2.17)"><tspan x="0" y="0">i</tspan></text><text class="cls-2" transform="translate(1849 77.85) rotate(2.09)"><tspan x="0" y="0">t</tspan></text><text class="cls-2" transform="translate(1864.21 78.41) rotate(1.99)"><tspan x="0" y="0">a</tspan></text></g></svg>